<svg width="588" height="72" viewBox="0 0 588 72" fill="none" xmlns="http://www.w3.org/2000/svg">
<path d="M42.02 68L39.5289 69.6716L40.4202 71H42.02V68ZM23.48 40.37L25.9711 38.6984L20.48 30.515V40.37H23.48ZM23.48 68V71H26.48V68H23.48ZM3.5 68H0.5V71H3.5V68ZM3.5 4.28V1.28H0.5V4.28H3.5ZM23.48 4.28H26.48V1.28H23.48V4.28ZM23.48 31.1H20.48V40.8326L25.9594 32.789L23.48 31.1ZM41.75 4.28V1.28H40.1637L39.2706 2.59102L41.75 4.28ZM64.34 4.28L66.7749 6.03254L70.1956 1.28H64.34V4.28ZM42.38 34.79L39.9451 33.0375L38.697 34.7715L39.9276 36.518L42.38 34.79ZM65.78 68V71H71.5637L68.2324 66.272L65.78 68ZM44.5111 66.3284L25.9711 38.6984L20.9889 42.0416L39.5289 69.6716L44.5111 66.3284ZM20.48 40.37V68H26.48V40.37H20.48ZM23.48 65H3.5V71H23.48V65ZM6.5 68V4.28H0.5V68H6.5ZM3.5 7.28H23.48V1.28H3.5V7.28ZM20.48 4.28V31.1H26.48V4.28H20.48ZM25.9594 32.789L44.2294 5.96898L39.2706 2.59102L21.0006 29.411L25.9594 32.789ZM41.75 7.28H64.34V1.28H41.75V7.28ZM61.9051 2.52746L39.9451 33.0375L44.8149 36.5425L66.7749 6.03254L61.9051 2.52746ZM39.9276 36.518L63.3276 69.728L68.2324 66.272L44.8324 33.062L39.9276 36.518ZM65.78 65H42.02V71H65.78V65ZM132.549 68V71H135.549V68H132.549ZM112.569 68L110.066 69.6527L110.955 71H112.569V68ZM91.4195 35.96L93.9232 34.3073L88.4195 25.9698V35.96H91.4195ZM91.4195 68V71H94.4195V68H91.4195ZM71.4395 68H68.4395V71H71.4395V68ZM71.4395 4.28V1.28H68.4395V4.28H71.4395ZM91.4195 4.28L93.9357 2.6465L93.0486 1.28H91.4195V4.28ZM112.569 36.86L110.053 38.4935L115.569 46.9909V36.86H112.569ZM112.569 4.28V1.28H109.569V4.28H112.569ZM132.549 4.28H135.549V1.28H132.549V4.28ZM132.549 65H112.569V71H132.549V65ZM115.073 66.3473L93.9232 34.3073L88.9158 37.6127L110.066 69.6527L115.073 66.3473ZM88.4195 35.96V68H94.4195V35.96H88.4195ZM91.4195 65H71.4395V71H91.4195V65ZM74.4395 68V4.28H68.4395V68H74.4395ZM71.4395 7.28H91.4195V1.28H71.4395V7.28ZM88.9032 5.9135L110.053 38.4935L115.086 35.2265L93.9357 2.6465L88.9032 5.9135ZM115.569 36.86V4.28H109.569V36.86H115.569ZM112.569 7.28H132.549V1.28H112.569V7.28ZM129.549 4.28V68H135.549V4.28H129.549ZM156.066 64.4L154.588 67.0105L154.595 67.0143L154.601 67.0181L156.066 64.4ZM144.186 52.7L141.603 54.2251L144.186 52.7ZM156.066 7.43L157.52 10.054L157.531 10.048L156.066 7.43ZM189.096 7.43L187.618 10.0405L187.63 10.0473L187.642 10.054L189.096 7.43ZM200.886 19.04L198.289 20.5419L198.296 20.5535L198.303 20.5651L200.886 19.04ZM200.886 52.7L198.303 51.1749L198.296 51.1865L198.289 51.1981L200.886 52.7ZM189.006 64.4L187.541 61.782L187.535 61.7857L187.528 61.7895L189.006 64.4ZM181.806 46.22L184.084 48.1724L184.095 48.1592L184.106 48.1458L181.806 46.22ZM181.806 25.52L179.506 27.4458L179.517 27.4592L179.528 27.4724L181.806 25.52ZM163.356 25.52L165.634 27.4724L165.645 27.4592L165.656 27.4458L163.356 25.52ZM163.356 46.22L161.056 48.1458L161.067 48.1592L161.078 48.1724L163.356 46.22ZM172.626 65.63C167.118 65.63 162.106 64.3416 157.531 61.782L154.601 67.0181C160.107 70.0984 166.134 71.63 172.626 71.63V65.63ZM157.544 61.7895C153.026 59.2311 149.445 55.7076 146.77 51.1749L141.603 54.2251C144.807 59.6525 149.146 63.9289 154.588 67.0105L157.544 61.7895ZM146.77 51.1749C144.124 46.6932 142.776 41.6174 142.776 35.87H136.776C136.776 42.6026 138.369 48.7468 141.603 54.2251L146.77 51.1749ZM142.776 35.87C142.776 30.1226 144.124 25.0468 146.77 20.5651L141.603 17.5149C138.369 22.9932 136.776 29.1374 136.776 35.87H142.776ZM146.77 20.5651C149.442 16.0379 153.016 12.5506 157.52 10.054L154.612 4.80603C149.157 7.82941 144.81 12.0821 141.603 17.5149L146.77 20.5651ZM157.531 10.048C162.106 7.48844 167.118 6.2 172.626 6.2V0.199997C166.134 0.199997 160.107 1.73155 154.601 4.81195L157.531 10.048ZM172.626 6.2C178.134 6.2 183.111 7.48835 187.618 10.0405L190.574 4.81948C185.121 1.73164 179.118 0.199997 172.626 0.199997V6.2ZM187.642 10.054C192.141 12.5475 195.678 16.0274 198.289 20.5419L203.483 17.5381C200.334 12.0926 196.011 7.83247 190.55 4.80603L187.642 10.054ZM198.303 20.5651C200.949 25.0468 202.296 30.1226 202.296 35.87H208.296C208.296 29.1374 206.704 22.9932 203.47 17.5149L198.303 20.5651ZM202.296 35.87C202.296 41.6174 200.949 46.6932 198.303 51.1749L203.47 54.2251C206.704 48.7468 208.296 42.6026 208.296 35.87H202.296ZM198.289 51.1981C195.68 55.7091 192.112 59.2243 187.541 61.782L190.471 67.0181C195.98 63.9357 200.332 59.6509 203.483 54.2019L198.289 51.1981ZM187.528 61.7895C183.016 64.3443 178.069 65.63 172.626 65.63V71.63C179.064 71.63 185.036 70.0957 190.484 67.0105L187.528 61.7895ZM172.626 53C177.276 53 181.243 51.4866 184.084 48.1724L179.528 44.2676C178.049 45.9934 175.896 47 172.626 47V53ZM184.106 48.1458C186.834 44.8878 188.046 40.6902 188.046 35.87H182.046C182.046 39.6898 181.098 42.3922 179.506 44.2942L184.106 48.1458ZM188.046 35.87C188.046 31.0059 186.842 26.7849 184.084 23.5676L179.528 27.4724C181.091 29.2951 182.046 31.9741 182.046 35.87H188.046ZM184.106 23.5942C181.273 20.2102 177.3 18.65 172.626 18.65V24.65C175.872 24.65 178.019 25.6698 179.506 27.4458L184.106 23.5942ZM172.626 18.65C167.909 18.65 163.898 20.1994 161.056 23.5942L165.656 27.4458C167.134 25.6806 169.303 24.65 172.626 24.65V18.65ZM161.078 23.5676C158.321 26.7849 157.116 31.0059 157.116 35.87H163.116C163.116 31.974 164.072 29.2951 165.634 27.4724L161.078 23.5676ZM157.116 35.87C157.116 40.6902 158.328 44.8878 161.056 48.1458L165.656 44.2942C164.064 42.3922 163.116 39.6898 163.116 35.87H157.116ZM161.078 48.1724C163.928 51.497 167.933 53 172.626 53V47C169.279 47 167.104 45.983 165.634 44.2676L161.078 48.1724ZM304.304 4.28L307.228 4.94915L308.068 1.28H304.304V4.28ZM289.724 68V71H292.115L292.648 68.6691L289.724 68ZM264.884 68L261.944 68.5996L262.434 71H264.884V68ZM257.504 31.82L260.443 31.2204H254.564L257.504 31.82ZM250.124 68V71H252.574L253.063 68.5996L250.124 68ZM225.284 68L222.359 68.6691L222.893 71H225.284V68ZM210.704 4.28V1.28H206.94L207.779 4.94915L210.704 4.28ZM232.214 4.28L235.183 3.85387L234.814 1.28H232.214V4.28ZM237.974 44.42L235.004 44.8461L240.907 45.0513L237.974 44.42ZM246.614 4.28V1.28H244.191L243.681 3.64872L246.614 4.28ZM268.394 4.28L271.327 3.64872L270.817 1.28H268.394V4.28ZM277.034 44.42L274.101 45.0513L280.003 44.8461L277.034 44.42ZM282.794 4.28V1.28H280.194L279.824 3.85387L282.794 4.28ZM301.379 3.61085L286.799 67.3309L292.648 68.6691L307.228 4.94915L301.379 3.61085ZM289.724 65H264.884V71H289.724V65ZM267.823 67.4004L260.443 31.2204L254.564 32.4196L261.944 68.5996L267.823 67.4004ZM254.564 31.2204L247.184 67.4004L253.063 68.5996L260.443 32.4196L254.564 31.2204ZM250.124 65H225.284V71H250.124V65ZM228.208 67.3309L213.628 3.61085L207.779 4.94915L222.359 68.6691L228.208 67.3309ZM210.704 7.28H232.214V1.28H210.704V7.28ZM229.244 4.70613L235.004 44.8461L240.943 43.9939L235.183 3.85387L229.244 4.70613ZM240.907 45.0513L249.547 4.91128L243.681 3.64872L235.041 43.7887L240.907 45.0513ZM246.614 7.28H268.394V1.28H246.614V7.28ZM265.461 4.91128L274.101 45.0513L279.967 43.7887L271.327 3.64872L265.461 4.91128ZM280.003 44.8461L285.763 4.70613L279.824 3.85387L274.064 43.9939L280.003 44.8461ZM282.794 7.28H304.304V1.28H282.794V7.28ZM331.449 52.88H328.449V55.88H331.449V52.88ZM350.709 52.88H353.709V49.88H350.709V52.88ZM350.709 68V71H353.709V68H350.709ZM311.469 68H308.469V71H311.469V68ZM311.469 4.28V1.28H308.469V4.28H311.469ZM331.449 4.28H334.449V1.28H331.449V4.28ZM331.449 55.88H350.709V49.88H331.449V55.88ZM347.709 52.88V68H353.709V52.88H347.709ZM350.709 65H311.469V71H350.709V65ZM314.469 68V4.28H308.469V68H314.469ZM311.469 7.28H331.449V1.28H311.469V7.28ZM328.449 4.28V52.88H334.449V4.28H328.449ZM376.976 20.21V17.21H373.976V20.21H376.976ZM376.976 28.04H373.976V31.04H376.976V28.04ZM396.776 28.04H399.776V25.04H396.776V28.04ZM396.776 43.07V46.07H399.776V43.07H396.776ZM376.976 43.07V40.07H373.976V43.07H376.976ZM376.976 52.07H373.976V55.07H376.976V52.07ZM399.476 52.07H402.476V49.07H399.476V52.07ZM399.476 68V71H402.476V68H399.476ZM356.996 68H353.996V71H356.996V68ZM356.996 4.28V1.28H353.996V4.28H356.996ZM399.476 4.28H402.476V1.28H399.476V4.28ZM399.476 20.21V23.21H402.476V20.21H399.476ZM373.976 20.21V28.04H379.976V20.21H373.976ZM376.976 31.04H396.776V25.04H376.976V31.04ZM393.776 28.04V43.07H399.776V28.04H393.776ZM396.776 40.07H376.976V46.07H396.776V40.07ZM373.976 43.07V52.07H379.976V43.07H373.976ZM376.976 55.07H399.476V49.07H376.976V55.07ZM396.476 52.07V68H402.476V52.07H396.476ZM399.476 65H356.996V71H399.476V65ZM359.996 68V4.28H353.996V68H359.996ZM356.996 7.28H399.476V1.28H356.996V7.28ZM396.476 4.28V20.21H402.476V4.28H396.476ZM399.476 17.21H376.976V23.21H399.476V17.21ZM451.016 8.32999L449.586 10.9673L449.593 10.9709L449.599 10.9744L451.016 8.32999ZM462.626 19.58L465.241 18.1092L462.626 19.58ZM462.626 52.34L465.248 53.7969L462.626 52.34ZM451.016 63.86L452.47 66.484L452.481 66.4781L451.016 63.86ZM407.006 68H404.006V71H407.006V68ZM407.006 4.28V1.28H404.006V4.28H407.006ZM442.466 46.49L444.511 48.6848L442.466 46.49ZM442.466 25.43L444.511 23.2352V23.2352L442.466 25.43ZM426.986 21.74V18.74H423.986V21.74H426.986ZM426.986 50.18H423.986V53.18H426.986V50.18ZM433.556 7.28C439.804 7.28 445.116 8.54398 449.586 10.9673L452.446 5.69267C446.955 2.71601 440.627 1.28 433.556 1.28V7.28ZM449.599 10.9744C454.157 13.4159 457.602 16.7676 460.011 21.0508L465.241 18.1092C462.25 12.7924 457.955 8.64408 452.433 5.68555L449.599 10.9744ZM460.011 21.0508C462.431 25.3533 463.676 30.2966 463.676 35.96H469.676C469.676 29.3834 468.22 23.4067 465.241 18.1092L460.011 21.0508ZM463.676 35.96C463.676 41.5573 462.434 46.5082 460.003 50.8831L465.248 53.7969C468.218 48.4518 469.676 42.4827 469.676 35.96H463.676ZM460.003 50.8831C457.585 55.2366 454.125 58.6829 449.551 61.242L452.481 66.4781C457.987 63.3971 462.267 59.1634 465.248 53.7969L460.003 50.8831ZM449.562 61.236C445.097 63.7105 439.794 65 433.556 65V71C440.638 71 446.975 69.5295 452.47 66.484L449.562 61.236ZM433.556 65H407.006V71H433.556V65ZM410.006 68V4.28H404.006V68H410.006ZM407.006 7.28H433.556V1.28H407.006V7.28ZM431.756 53.18C436.819 53.18 441.187 51.7821 444.511 48.6848L440.421 44.2952C438.465 46.118 435.693 47.18 431.756 47.18V53.18ZM444.511 48.6848C447.912 45.5156 449.426 41.1188 449.426 35.96H443.426C443.426 39.9212 442.3 42.5444 440.421 44.2952L444.511 48.6848ZM449.426 35.96C449.426 30.8012 447.912 26.4044 444.511 23.2352L440.421 27.6248C442.3 29.3756 443.426 31.9988 443.426 35.96H449.426ZM444.511 23.2352C441.187 20.1379 436.819 18.74 431.756 18.74V24.74C435.693 24.74 438.465 25.8021 440.421 27.6248L444.511 23.2352ZM431.756 18.74H426.986V24.74H431.756V18.74ZM423.986 21.74V50.18H429.986V21.74H423.986ZM426.986 53.18H431.756V47.18H426.986V53.18ZM512.951 26.06L510.4 27.6391L511.279 29.06H512.951V26.06ZM509.621 23.18L508.279 25.8633L508.324 25.886L508.371 25.9072L509.621 23.18ZM495.491 25.88L497.772 27.8278L497.784 27.8142L497.795 27.8005L495.491 25.88ZM495.851 47.21L493.677 49.2776L495.851 47.21ZM517.811 45.32L520.201 47.1323L523.849 42.32H517.811V45.32ZM501.881 45.32H498.881V48.32H501.881V45.32ZM501.881 31.19V28.19H498.881V31.19H501.881ZM534.371 31.19H537.371V28.19H534.371V31.19ZM534.371 51.17L536.963 52.6796L537.371 51.9798V51.17H534.371ZM522.941 63.41L524.647 65.8777L524.657 65.8706L524.667 65.8634L522.941 63.41ZM487.211 64.4L485.729 67.0087L485.748 67.0195L485.767 67.03L487.211 64.4ZM475.961 52.88L473.304 54.2732L473.31 54.2859L473.317 54.2985L475.961 52.88ZM475.961 19.22L473.317 17.8015L473.31 17.8141L473.304 17.8268L475.961 19.22ZM487.211 7.79L488.668 10.4125L488.68 10.4056L488.692 10.3987L487.211 7.79ZM524.651 9.68L522.82 12.0569L522.827 12.0619L522.833 12.0669L524.651 9.68ZM534.011 26.06V29.06H537.457L536.982 25.6466L534.011 26.06ZM515.501 24.4809C514.389 22.6833 512.809 21.3412 510.871 20.4528L508.371 25.9072C509.312 26.3388 509.953 26.9167 510.4 27.6391L515.501 24.4809ZM510.962 20.4967C509.01 19.5203 506.785 19.1 504.401 19.1V25.1C506.096 25.1 507.352 25.3997 508.279 25.8633L510.962 20.4967ZM504.401 19.1C499.839 19.1 495.956 20.6355 493.186 23.9594L497.795 27.8005C499.225 26.0845 501.282 25.1 504.401 25.1V19.1ZM493.209 23.9322C490.509 27.0946 489.341 31.2578 489.341 36.05H495.341C495.341 32.2022 496.272 29.5854 497.772 27.8278L493.209 23.9322ZM489.341 36.05C489.341 41.4442 490.604 46.0468 493.677 49.2776L498.024 45.1424C496.418 43.4532 495.341 40.6158 495.341 36.05H489.341ZM493.677 49.2776C496.791 52.5511 501.329 53.9 506.651 53.9V47.9C502.253 47.9 499.591 46.7889 498.024 45.1424L493.677 49.2776ZM506.651 53.9C512.221 53.9 516.821 51.5913 520.201 47.1323L515.42 43.5077C513.16 46.4887 510.32 47.9 506.651 47.9V53.9ZM517.811 42.32H501.881V48.32H517.811V42.32ZM504.881 45.32V31.19H498.881V45.32H504.881ZM501.881 34.19H534.371V28.19H501.881V34.19ZM531.371 31.19V51.17H537.371V31.19H531.371ZM531.778 49.6604C529.253 53.9968 525.751 57.7641 521.214 60.9566L524.667 65.8634C529.85 62.2159 533.968 57.8232 536.963 52.6796L531.778 49.6604ZM521.235 60.9423C516.992 63.8753 511.48 65.45 504.491 65.45V71.45C512.382 71.45 519.169 69.6647 524.647 65.8777L521.235 60.9423ZM504.491 65.45C498.306 65.45 493.06 64.1877 488.654 61.77L485.767 67.03C491.202 70.0123 497.475 71.45 504.491 71.45V65.45ZM488.692 61.7913C484.323 59.3103 480.976 55.8827 478.604 51.4615L473.317 54.2985C476.225 59.7173 480.378 63.9697 485.729 67.0087L488.692 61.7913ZM478.617 51.4868C476.292 47.0512 475.091 41.9304 475.091 36.05H469.091C469.091 42.7696 470.47 48.8688 473.304 54.2732L478.617 51.4868ZM475.091 36.05C475.091 30.1696 476.292 25.0488 478.617 20.6132L473.304 17.8268C470.47 23.2312 469.091 29.3304 469.091 36.05H475.091ZM478.604 20.6384C480.973 16.2229 484.313 12.8319 488.668 10.4125L485.754 5.16753C480.389 8.14811 476.228 12.3771 473.317 17.8015L478.604 20.6384ZM488.692 10.3987C493.029 7.9358 498.201 6.65 504.311 6.65V0.649998C497.34 0.649998 491.112 2.12419 485.729 5.18131L488.692 10.3987ZM504.311 6.65C512.167 6.65 518.251 8.53775 522.82 12.0569L526.481 7.30314C520.611 2.78224 513.134 0.649998 504.311 0.649998V6.65ZM522.833 12.0669C527.449 15.5813 530.182 20.3144 531.039 26.4734L536.982 25.6466C535.919 18.0056 532.412 11.8187 526.468 7.29308L522.833 12.0669ZM534.011 23.06H512.951V29.06H534.011V23.06ZM561.546 20.21V17.21H558.546V20.21H561.546ZM561.546 28.04H558.546V31.04H561.546V28.04ZM581.346 28.04H584.346V25.04H581.346V28.04ZM581.346 43.07V46.07H584.346V43.07H581.346ZM561.546 43.07V40.07H558.546V43.07H561.546ZM561.546 52.07H558.546V55.07H561.546V52.07ZM584.046 52.07H587.046V49.07H584.046V52.07ZM584.046 68V71H587.046V68H584.046ZM541.566 68H538.566V71H541.566V68ZM541.566 4.28V1.28H538.566V4.28H541.566ZM584.046 4.28H587.046V1.28H584.046V4.28ZM584.046 20.21V23.21H587.046V20.21H584.046ZM558.546 20.21V28.04H564.546V20.21H558.546ZM561.546 31.04H581.346V25.04H561.546V31.04ZM578.346 28.04V43.07H584.346V28.04H578.346ZM581.346 40.07H561.546V46.07H581.346V40.07ZM558.546 43.07V52.07H564.546V43.07H558.546ZM561.546 55.07H584.046V49.07H561.546V55.07ZM581.046 52.07V68H587.046V52.07H581.046ZM584.046 65H541.566V71H584.046V65ZM544.566 68V4.28H538.566V68H544.566ZM541.566 7.28H584.046V1.28H541.566V7.28ZM581.046 4.28V20.21H587.046V4.28H581.046ZM584.046 17.21H561.546V23.21H584.046V17.21Z" fill="white"/>
</svg>
