<svg width="70" height="70" viewBox="0 0 70 70" fill="none" xmlns="http://www.w3.org/2000/svg">
<g clip-path="url(#clip0)">
<path d="M35.1608 0.514709C15.8305 0.514709 0.160767 16.1844 0.160767 35.5147C0.160767 54.845 15.8305 70.5147 35.1608 70.5147C54.4911 70.5147 70.1608 54.845 70.1608 35.5147C70.1608 16.1844 54.4911 0.514709 35.1608 0.514709ZM35.1608 64.3382C19.2419 64.3382 6.33724 51.4335 6.33724 35.5147C6.33724 19.5959 19.2419 6.69118 35.1608 6.69118C51.0796 6.69118 63.9843 19.5959 63.9843 35.5147C63.9843 51.4335 51.0796 64.3382 35.1608 64.3382Z" fill="white"/>
<path d="M28.8235 49.3356L47.353 35.5147L28.8235 21.6938V49.3356Z" fill="white"/>
</g>
<defs>
<clipPath id="clip0">
<rect width="70" height="70" fill="white"/>
</clipPath>
</defs>
</svg>
