<svg width="32" height="32" viewBox="0 0 32 32" fill="none" xmlns="http://www.w3.org/2000/svg">
<path d="M16 32C24.8366 32 32 24.8366 32 16C32 7.16344 24.8366 0 16 0C7.16344 0 0 7.16344 0 16C0 24.8366 7.16344 32 16 32Z" fill="#3C579E"/>
<path d="M14.064 26V16.9635H10.8387V13.7413H14.0645V10.7673C14.0645 7.76725 15.8355 6 18.5115 6C19.7937 6 20.8397 6.137 21.161 6.17975V9.54925L19.0067 9.54825C17.552 9.54825 17.2792 10.27 17.2792 11.2845V13.7415H21.0082L20.4817 16.9635H17.2797V26H14.064Z" fill="white"/>
</svg>
