<svg width="32" height="32" viewBox="0 0 32 32" fill="none" xmlns="http://www.w3.org/2000/svg">
<path d="M16 32C24.8366 32 32 24.8366 32 16C32 7.16344 24.8366 0 16 0C7.16344 0 0 7.16344 0 16C0 24.8366 7.16344 32 16 32Z" fill="#0076B4"/>
<path d="M11.0297 23.9835H7.296V11.9825H11.0297V23.9835ZM9.164 10.3427C7.966 10.3427 7 9.37374 7 8.17949C7 6.98574 7.966 6.01649 9.164 6.01649C10.3567 6.01649 11.3255 6.98549 11.3255 8.17949C11.3257 9.37374 10.357 10.3427 9.164 10.3427ZM25 23.9835H21.2703V18.1475C21.2703 16.756 21.246 14.9655 19.3323 14.9655C17.391 14.9655 17.0952 16.4817 17.0952 18.048V23.9835H13.3698V11.9825H16.945V13.623H16.996C17.4935 12.6795 18.7102 11.6847 20.5252 11.6847C24.3015 11.6847 24.9995 14.1695 24.9995 17.4017L25 23.9835Z" fill="white"/>
</svg>
