<svg width="32" height="32" viewBox="0 0 32 32" fill="none" xmlns="http://www.w3.org/2000/svg">
<path d="M16 32C24.8366 32 32 24.8366 32 16C32 7.16344 24.8366 0 16 0C7.16344 0 0 7.16344 0 16C0 24.8366 7.16344 32 16 32Z" fill="url(#paint0_linear)"/>
<path d="M20.5833 26H11.4167C8.43 26 6 23.5702 6 20.5833V11.4167C6 8.42975 8.43 6 11.4167 6H20.5833C23.5702 6 26 8.42975 26 11.4167V20.5835C26 23.5702 23.5702 26 20.5833 26ZM11.4167 7.66675C9.349 7.66675 7.66675 9.349 7.66675 11.4167V20.5835C7.66675 22.6512 9.349 24.3335 11.4167 24.3335H20.5833C22.651 24.3335 24.3333 22.6512 24.3333 20.5835V11.4167C24.3333 9.349 22.651 7.66675 20.5833 7.66675H11.4167Z" fill="white"/>
<path d="M16 21C13.243 21 11 18.7568 11 16C11 13.2427 13.243 11 16 11C18.757 11 21 13.2427 21 16C21 18.7568 18.757 21 16 21ZM16 12.6667C14.162 12.6667 12.6667 14.162 12.6667 16C12.6667 17.8383 14.162 19.3333 16 19.3333C17.838 19.3333 19.3333 17.8383 19.3333 16C19.3333 14.162 17.8383 12.6667 16 12.6667Z" fill="white"/>
<path d="M21.3125 11.8333C21.9453 11.8333 22.4582 11.3203 22.4582 10.6875C22.4582 10.0547 21.9453 9.54176 21.3125 9.54176C20.6797 9.54176 20.1667 10.0547 20.1667 10.6875C20.1667 11.3203 20.6797 11.8333 21.3125 11.8333Z" fill="white"/>
<defs>
<linearGradient id="paint0_linear" x1="6.82215" y1="29.1077" x2="25.1781" y2="2.8926" gradientUnits="userSpaceOnUse">
<stop stop-color="#FFB900"/>
<stop offset="1" stop-color="#9100EB"/>
</linearGradient>
</defs>
</svg>
