<svg width="120" height="71" viewBox="0 0 120 71" fill="none" xmlns="http://www.w3.org/2000/svg">
<path fill-rule="evenodd" clip-rule="evenodd" d="M50.369 0.625513C50.2917 0.888514 50.1574 1.24951 49.9145 1.82551C49.7609 2.17251 49.2944 3.06751 49.1923 3.18451C49.1601 3.22651 49.0837 3.33751 49.0322 3.42051C48.9807 3.50351 48.8399 3.69051 48.7249 3.82951C48.4499 4.15551 48.3027 4.48151 48.2005 4.94651C47.9255 6.23651 47.0045 7.15951 45.5141 7.63851C45.3927 7.67951 44.964 7.74951 44.5739 7.79851C44.1774 7.83951 43.8508 7.90951 43.8508 7.94351C43.8508 7.97851 43.8894 8.08951 43.94 8.19351C44.0808 8.48551 44.4718 9.83051 44.6503 10.6355C44.8481 11.5235 44.8738 12.5015 44.7018 12.6545C44.6319 12.7245 44.4331 12.7515 44.0808 12.7455C43.6392 12.7385 43.5113 12.7105 43.2427 12.5445C43.0697 12.4405 42.8204 12.2465 42.6861 12.1145C42.5582 11.9755 42.4239 11.8925 42.3917 11.9135C42.2573 12.0035 42.1745 12.7455 42.2058 13.4815C42.25 14.4795 42.4551 15.2015 43.1203 16.6375C43.4147 17.2825 43.6576 17.8375 43.6576 17.8655C43.6576 17.9005 43.5168 17.9215 43.3374 17.9215C43.0817 17.9215 43.0108 17.9495 42.9529 18.0675C42.7744 18.4215 42.5628 21.2935 42.6971 21.5225C42.7863 21.6815 42.9271 21.5575 43.0108 21.2525C43.1258 20.8355 43.503 20.0045 43.6631 19.8165C43.8867 19.5665 44.239 19.4215 44.7505 19.3865L45.2363 19.3455L44.987 18.7565C44.3853 17.3685 43.676 14.5805 43.8545 14.3445C43.8867 14.2955 44.0532 14.2475 44.2188 14.2265C44.5831 14.1855 46.0809 13.8585 46.125 13.8095C46.1443 13.7955 46.0993 13.6085 46.0293 13.4075C45.4157 11.5895 45.8831 9.98051 47.2511 9.19051C48.2806 8.59451 48.6007 8.23951 48.6651 7.62251C48.7167 7.15151 48.908 6.52651 49.1573 6.03351C49.3689 5.59651 49.8869 4.75751 50.0148 4.63951C50.0525 4.59851 50.1362 4.47351 50.1933 4.36251C50.2577 4.23051 50.3598 4.14751 50.4619 4.13351C50.6606 4.10551 50.6542 4.04351 50.5327 5.18751C50.4297 6.11751 50.449 6.35951 50.6735 6.89351C50.9357 7.53151 51.7416 8.51751 53.0591 9.80751C53.9487 10.6815 54.0628 10.8135 54.2744 11.1805C54.6709 11.8805 54.7602 12.7485 54.5302 13.6915C54.4602 13.9765 54.4023 14.2115 54.4023 14.2185C54.4023 14.2395 55.1834 14.3985 55.8734 14.5245C56.3085 14.6005 56.6922 14.7045 56.7179 14.7535C56.8844 15.0315 56.2515 17.6875 55.6756 19.1375C55.5348 19.4765 55.4262 19.8035 55.4262 19.8445C55.4262 19.9485 55.5284 19.9625 55.5863 19.8655C55.6056 19.8245 55.8485 19.7965 56.1236 19.7965C56.5578 19.7965 56.648 19.8175 56.9166 20.0045C57.2938 20.2605 57.4226 20.4895 57.671 21.3495C57.8569 21.9945 57.8688 22.0225 57.959 21.8835C58.0998 21.6685 58.1954 20.5725 58.1577 19.5255C58.1255 18.5955 58.1255 18.5885 57.9461 18.4295C57.8118 18.3115 57.6775 18.2705 57.4604 18.2705C57.1209 18.2705 57.096 18.2215 57.2681 17.8815C57.6453 17.1255 58.1126 16.0085 58.1126 15.8565C58.1126 15.7875 58.1384 15.7035 58.1706 15.6625C58.2028 15.6275 58.292 15.3295 58.3629 14.9965C58.5745 14.0465 58.5294 12.6865 58.2736 12.2425C58.2543 12.2075 58.1458 12.2775 58.0308 12.3955C57.6858 12.7635 57.3849 12.9985 57.269 12.9985C57.211 12.9985 57.1411 13.0265 57.1218 13.0675C57.0583 13.1785 56.1172 13.1505 55.9764 13.0325C55.8669 12.9425 55.8605 12.8595 55.8872 12.0825C55.9065 11.6105 55.9571 11.0695 56.0022 10.8825C56.1365 10.2935 56.3858 9.38451 56.5523 8.84951C56.636 8.57151 56.6931 8.30851 56.6673 8.27351C56.648 8.23851 56.5394 8.21751 56.4309 8.22451C56.027 8.26551 54.8705 8.12751 54.4409 7.98851C53.6672 7.74551 52.887 7.27351 52.6368 6.89951C52.5917 6.83751 52.4831 6.69851 52.393 6.58051C52.2081 6.34451 51.9008 5.69251 51.7472 5.19351C51.6901 5.00651 51.5871 4.36751 51.5171 3.77151C51.4537 3.18251 51.3635 2.52351 51.3249 2.31451C51.2485 1.89751 50.6027 0.371513 50.507 0.371513C50.4748 0.371513 50.4113 0.489513 50.3662 0.628513L50.3653 0.627513L50.369 0.625513Z" fill="#006400"/>
<path fill-rule="evenodd" clip-rule="evenodd" d="M37.7833 17.0451C37.694 17.2531 37.3288 17.7111 37.246 17.7111C37.2138 17.7111 37.1052 17.7671 37.016 17.8431C36.6958 18.0861 35.1925 18.0931 34.2523 17.8501C34.0922 17.8151 33.8236 17.7461 33.6451 17.7111C33.4721 17.6691 33.1971 17.6071 33.037 17.5721C31.8861 17.3021 31.2973 17.2391 31.0866 17.3641C30.5935 17.6491 30.7149 18.5291 31.6883 21.5271C32.174 23.0181 32.2642 23.8721 31.9891 24.2111C31.8999 24.3221 31.7591 24.4891 31.6754 24.6001C31.4831 24.8361 31.3488 25.1691 31.3939 25.2941C31.4325 25.4051 31.8548 25.4811 32.4049 25.4811C32.6165 25.4811 32.7821 25.5091 32.7821 25.5501C32.7821 25.5851 32.8659 25.6191 32.9615 25.6191C33.1915 25.6191 33.7868 25.8831 34.0297 26.0911C34.1953 26.2361 34.2219 26.2981 34.2146 26.5841C34.2146 26.8681 34.1824 26.9511 33.9781 27.1731C33.8503 27.3121 33.7159 27.4231 33.6773 27.4231C33.6387 27.4231 33.5623 27.4511 33.4979 27.4861C33.4399 27.5211 33.255 27.6181 33.0885 27.7011C32.9155 27.7921 32.7821 27.8881 32.7821 27.9231C32.7821 27.9511 32.7371 27.9791 32.6865 27.9791C32.5715 27.9791 32.3157 28.4021 32.3865 28.4781C32.4123 28.5061 32.9487 28.5401 33.5825 28.5541C34.2155 28.5751 34.8816 28.6231 35.0536 28.6651C35.233 28.7131 35.4823 28.7691 35.6167 28.7891C35.7445 28.8101 35.8531 28.8521 35.8531 28.8861C35.8531 28.9211 35.9046 28.9481 35.9681 28.9481C36.1668 28.9481 37.0813 29.4821 37.4337 29.7941C37.7603 30.0921 38.0289 30.5221 38.0289 30.7451C38.0289 30.9321 37.8366 31.3061 37.7409 31.3061C37.6968 31.3061 37.6453 31.3271 37.6324 31.3551C37.6066 31.4311 37.0758 31.7231 36.9672 31.7231C36.9157 31.7231 36.8771 31.7511 36.8771 31.7851C36.8771 31.8201 36.7685 31.8611 36.6406 31.8821C36.5063 31.9031 36.2377 31.9581 36.0454 32.0001C35.2772 32.1671 34.8236 32.2221 33.8705 32.2701L32.8787 32.3121L32.8208 32.5891C32.623 33.5601 32.2191 34.2821 31.4647 34.9821C31.2411 35.1971 30.6965 35.6061 30.6395 35.6061C30.6137 35.6061 30.4794 35.6961 30.3322 35.8001C30.0194 36.0292 29.552 36.2652 28.8804 36.5431C28.5989 36.6542 28.4269 36.7312 27.9908 36.9382L27.7672 37.0421L27.9908 37.1671C28.6559 37.5411 29.0589 37.7431 29.5833 37.9511C29.7756 38.0271 29.9927 38.1171 30.0635 38.1451C30.1335 38.1731 30.3763 38.2562 30.6073 38.3252C30.8373 38.4012 31.1188 38.4841 31.2338 38.5261C31.8097 38.7061 31.9311 38.7341 32.8456 38.9351C33.0057 38.9701 33.2808 39.0322 33.4537 39.0742C34.0039 39.2062 34.7657 39.2892 35.6801 39.3242C36.3582 39.3521 36.556 39.3871 36.556 39.4562C36.556 39.5121 36.4539 39.7622 36.3315 40.0252C36.1079 40.4972 36.05 40.7402 36.1714 40.7402C36.2091 40.7402 36.2349 40.7052 36.2349 40.6712C36.2349 40.6292 36.2671 40.6011 36.2993 40.6011C36.337 40.6011 36.4842 40.5452 36.6388 40.4692C37.4061 40.1092 37.9305 39.9071 38.1099 39.9071C38.1743 39.9071 38.2699 39.8791 38.3334 39.8451C38.4365 39.7821 39.4273 39.5821 40.3611 39.4291C40.6104 39.3941 41.0014 39.3251 41.2314 39.2901C41.7751 39.1931 43.3042 39.1931 43.4698 39.2831C43.6363 39.3801 43.6299 39.7962 43.4633 40.0252C43.3419 40.1922 43.3419 40.2191 43.4311 40.3231C43.6363 40.5661 44.5508 40.6912 45.3815 40.6002C45.7532 40.5592 46.3153 40.4961 46.6291 40.4611C47.2556 40.3911 47.9272 40.2941 48.5804 40.1761C48.8104 40.1351 49.1241 40.0791 49.2906 40.0511C49.9171 39.9471 50.2502 39.5591 50.4489 38.7051C50.5188 38.3932 50.6476 37.9911 50.7304 37.8111C51.0248 37.1871 51.0754 36.9232 51.0699 36.0912C51.0699 35.6542 51.0441 35.1551 51.0119 34.9821C50.9797 34.8091 50.9282 34.2331 50.9098 33.6991C50.8647 32.7631 50.9227 31.9241 51.1407 30.2301C51.345 28.6491 51.4471 26.1581 51.345 25.1311C51.2751 24.4381 51.0635 23.6611 50.7433 22.9121C50.5262 22.4051 50.0331 21.5661 50.0018 21.6561C49.9953 21.6841 50.0597 21.9621 50.149 22.2591C50.3735 23.0091 50.4563 24.2781 50.4176 26.2761C50.3919 27.4411 50.3597 27.9761 50.2833 28.2531C50.2253 28.4611 50.1803 28.7391 50.1803 28.8561C50.1803 28.9811 50.1545 29.0851 50.1232 29.0851C50.091 29.0851 50.0469 29.1891 50.0275 29.3211C49.919 29.9241 49.7911 30.2641 49.6697 30.2641C49.5096 30.2641 49.0303 30.0421 49.0303 29.9731C49.0303 29.9381 48.9916 29.9171 48.9465 29.9171C48.9015 29.9171 48.7414 29.8541 48.5942 29.7781C48.4534 29.7021 48.3062 29.6391 48.2676 29.6391C48.2354 29.6391 48.0882 29.5771 47.9474 29.5001C47.8002 29.4241 47.5702 29.2991 47.423 29.2231C47.2823 29.1471 47.1222 29.0841 47.0707 29.0841C47.0191 29.0841 46.9814 29.0561 46.9814 29.0211C46.9814 28.9861 46.8857 28.9101 46.7698 28.8541C46.5582 28.7431 46.4175 28.6251 46.0283 28.2301C45.8231 28.0221 45.8167 28.0221 45.8618 28.1811C45.9639 28.5551 46.5527 29.3121 46.9308 29.5551C47.0329 29.6181 47.1093 29.6941 47.1093 29.7211C47.1093 29.7491 47.1479 29.7771 47.1985 29.7771C47.2501 29.7771 47.3007 29.7981 47.3135 29.8251C47.3264 29.8601 47.5058 30.0191 47.7165 30.1931C48.8812 31.1431 49.3477 31.7881 49.5326 32.6912C49.6605 33.3022 49.6163 34.9321 49.4433 36.0211C49.3541 36.5691 49.2511 37.1312 49.2198 37.2692C49.1876 37.4012 49.1554 37.5951 49.1554 37.7062C49.1554 38.0462 48.746 38.4282 48.228 38.5521C47.9217 38.6281 46.917 38.7462 46.5325 38.7532C46.1875 38.7602 45.3815 38.5312 45.3815 38.4342C45.3815 38.3992 45.3374 38.3782 45.2785 38.3782C45.227 38.3782 45.0163 38.2881 44.8185 38.1771C44.1147 37.7951 44.1533 37.8032 43.3529 37.8442C42.6491 37.8852 42.4127 37.9201 41.5746 38.1011C41.4016 38.1421 41.0824 38.2052 40.8708 38.2402C40.6592 38.2822 40.3271 38.3441 40.1357 38.3791C39.9443 38.4201 39.6242 38.4701 39.4255 38.4902C39.0676 38.5322 39.0676 38.5322 39.0289 38.3312C38.9774 38.0331 38.7474 37.9842 37.0969 37.8942C35.785 37.8312 34.992 37.7492 34.5053 37.6442C34.4161 37.6232 34.2045 37.5822 34.0251 37.5472C33.3921 37.4222 33.2569 37.3881 33.1934 37.3391C33.1612 37.3111 33.0278 37.2701 32.9054 37.2421C32.784 37.2141 32.4969 37.0972 32.266 36.9722C31.7545 36.6952 31.7287 36.5702 32.151 36.3132C32.3166 36.2092 32.5034 36.0772 32.5669 36.0222C32.6303 35.9662 32.7831 35.8421 32.9054 35.7442C33.0269 35.6472 33.1869 35.5221 33.2578 35.4671C33.4823 35.2861 34.7289 33.9131 34.9083 33.6561C35.0039 33.5182 35.1511 33.3861 35.2284 33.3651C35.3048 33.3451 35.7022 33.2261 36.1052 33.1091C36.7897 32.9002 36.9691 32.8591 37.6719 32.7271C37.8127 32.6991 37.9985 32.6581 38.0878 32.6231C38.177 32.5951 38.3693 32.5331 38.522 32.4841C38.6692 32.4361 38.7907 32.3661 38.7907 32.3311C38.7907 32.3031 38.8486 32.2751 38.925 32.2751C39.0786 32.2751 39.5846 31.9141 39.8017 31.6581C40.0897 31.3111 40.1541 31.1031 40.109 30.6521C40.0897 30.4231 40.0455 30.2221 40.0189 30.2011C39.9931 30.1801 39.8974 30.0482 39.8137 29.9162C39.5708 29.5421 39.1807 29.1321 38.7585 28.8341C38.3491 28.5361 37.8247 28.2511 37.6839 28.2511C37.6324 28.2511 37.5753 28.2301 37.5496 28.2021C37.4861 28.1261 36.9359 27.9801 36.7179 27.9731C36.3655 27.9731 35.7197 27.6961 35.5283 27.4741C35.3361 27.2451 35.3554 26.8151 35.5725 26.6211C35.739 26.4621 35.8089 26.4201 36.245 26.2121C36.6609 26.0111 36.7823 25.5181 36.5072 25.1791C36.4493 25.1171 36.3471 25.0611 36.2772 25.0611C36.073 25.0611 35.6378 24.9081 35.452 24.7701C35.3627 24.7011 35.2597 24.6451 35.2275 24.6451C35.1833 24.6451 35.0159 24.5061 34.6323 24.1321C34.2928 23.8061 33.7877 23.0221 33.462 22.3211C32.7775 20.8441 32.5669 19.2341 33.0526 19.2341C33.1225 19.2341 33.4169 19.3861 33.6985 19.5671C33.9864 19.7471 34.3185 19.9411 34.44 19.9901C34.5614 20.0381 34.785 20.1431 34.9331 20.2121C35.0867 20.2881 35.2459 20.3441 35.2974 20.3441C35.3489 20.3441 35.4133 20.3721 35.4317 20.4131C35.4511 20.4481 35.5532 20.4821 35.6553 20.4821C35.7574 20.4821 35.854 20.5101 35.8724 20.5441C35.9681 20.7031 37.5487 20.7871 37.7152 20.6411C37.7851 20.5721 37.8044 20.4261 37.7787 19.9821C37.7593 19.4821 37.7722 19.3851 37.8808 19.2471C38.0795 19.0041 38.2331 19.0531 38.5266 19.4761C38.8468 19.9411 39.6334 20.7871 39.8827 20.9471C39.9848 21.0161 40.0676 21.0921 40.0676 21.1201C40.0676 21.1481 40.0998 21.1761 40.132 21.1761C40.1707 21.1761 40.2599 21.2381 40.3363 21.3081C40.4062 21.3841 40.6178 21.5231 40.7972 21.6201C40.9766 21.7171 41.213 21.8491 41.3151 21.9121C41.6289 22.1061 41.7245 22.1471 41.8267 22.1471C41.9996 22.1471 41.846 21.9391 40.7907 20.7871C40.1311 20.0661 39.7346 19.5801 39.6582 19.3861C39.5874 19.2271 39.511 19.0941 39.4788 19.0941C39.4531 19.0941 39.4273 19.0321 39.4273 18.9551C39.4273 18.8791 39.4015 18.8161 39.3629 18.8161C39.3307 18.8161 39.2994 18.7751 39.2994 18.7261C39.293 18.5461 38.7364 17.6161 38.4098 17.2551C38.0326 16.8381 37.8854 16.7901 37.7768 17.0401L37.775 17.0441L37.7833 17.0451Z" fill="#006400"/>
<path fill-rule="evenodd" clip-rule="evenodd" d="M62.6038 17.3439C62.4179 17.5379 62.1815 17.9539 61.8549 18.6549C61.2468 19.9659 61.1704 20.1049 60.8052 20.4859C60.2099 21.1099 59.9413 21.3389 59.289 21.8109C58.9311 22.0809 58.6294 22.3099 58.6294 22.3309C58.6294 22.4899 60.2035 21.7069 60.2799 21.5049C60.2927 21.4769 60.3314 21.4569 60.3636 21.4569C60.485 21.4569 61.1953 20.8119 61.8098 20.1389C62.1613 19.7579 62.4814 19.4459 62.5201 19.4459C62.5587 19.4459 62.6479 19.5289 62.7252 19.6329C62.8531 19.8069 62.866 19.8829 62.8338 20.3609C62.808 20.7629 62.8209 20.9159 62.8917 20.9779C62.9939 21.0689 64.1457 21.0259 64.5477 20.9159C65.5653 20.6389 66.4356 20.2359 67.1771 19.7159C67.5672 19.4379 67.7337 19.3959 67.9067 19.5149C67.983 19.5629 68.0023 19.7229 67.9959 20.2219C67.9895 20.8529 67.926 21.1719 67.6629 21.9419C67.535 22.3099 67.0685 23.2669 66.8634 23.5649C66.4797 24.1409 66.2939 24.3629 65.9425 24.6819C65.4567 25.1189 65.1172 25.3059 64.6949 25.3689C63.8955 25.4939 63.9783 26.3959 64.8109 26.6519C65.4503 26.8459 65.7125 27.4009 65.3675 27.8099C65.2074 27.9899 64.9893 28.1159 64.8237 28.1159C64.7474 28.1159 64.6002 28.1439 64.4916 28.1779C64.3821 28.2189 64.0371 28.3309 63.7179 28.4339C62.8034 28.7259 61.9911 29.1839 61.5752 29.6409C61.2431 30.0159 61.1401 30.1339 61.0435 30.3069C60.9735 30.4319 60.6147 31.9239 60.6147 32.0899C60.6147 32.3049 60.8705 32.5749 61.1971 32.7139C61.3507 32.7769 61.8558 32.9079 62.3094 33.0049C63.2496 33.2059 63.889 33.3659 64.1521 33.4619C64.6259 33.6359 64.7152 33.6979 64.8431 33.9339C65.2525 34.6829 65.6619 35.2589 66.0841 35.6959C66.3463 35.9659 66.8901 36.2989 67.0759 36.2989C67.2746 36.2989 67.4154 36.4719 67.3767 36.6589C67.3059 36.9439 66.5773 37.3249 65.4447 37.6719C65.2019 37.7479 64.9268 37.8249 64.8366 37.8449C64.7474 37.8659 64.3628 37.9489 63.9792 38.0319C63.2183 38.1909 62.3995 38.2819 61.0941 38.3439C59.7766 38.4129 59.3221 38.5589 59.3801 38.8919C59.4123 39.0649 59.4059 39.0719 59.0599 39.0719C58.8677 39.0719 58.369 38.9959 57.9532 38.8989C56.2263 38.4969 56.1104 38.4819 55.3753 38.5729C54.4931 38.6769 53.3734 38.6769 53.0413 38.5729C52.9005 38.5249 52.677 38.3719 52.5482 38.2259C52.1581 37.7889 52.0679 37.8589 51.78 38.7599C51.5307 39.5649 51.5307 40.0639 51.78 40.6399C52.0229 41.1949 52.0679 41.4509 51.9851 41.7289C51.8315 42.2349 51.3899 42.5129 49.9639 43.0399C49.5416 43.1929 49.1451 43.3449 49.0871 43.3799C48.7799 43.5599 48.7992 44.0879 49.1249 44.4209C49.4321 44.7339 49.5536 44.6909 50.0844 44.1019C50.5969 43.5329 50.9097 43.3459 51.4727 43.2699C52.0422 43.1939 52.3623 42.9849 52.573 42.5419C52.7331 42.2159 52.7524 42.1049 52.7202 41.7789C52.7009 41.5709 52.6623 41.1129 52.6439 40.7729C52.6052 40.1629 52.6117 40.1419 52.7901 39.9189L52.9695 39.6829L54.4093 39.6419C55.2024 39.6209 56.3091 39.6069 56.8722 39.6139C57.8446 39.6349 58.0498 39.6629 59.5273 39.9819C59.7187 40.0229 60.186 40.1489 60.5632 40.2599C60.9413 40.3709 61.2799 40.4609 61.3121 40.4609C61.382 40.4609 61.6129 40.5649 62.2717 40.8839C62.4253 40.9599 62.5596 41.0089 62.5725 40.9949C62.6102 40.9539 62.3296 40.2389 62.2008 40.0519C62.1373 39.9609 62.0858 39.8299 62.0858 39.7609C62.0858 39.6429 62.1373 39.6289 62.5201 39.6289C63.0123 39.6289 63.8633 39.5039 65.3794 39.2199C65.591 39.1789 65.9931 39.0809 66.2746 38.9979C66.5561 38.9219 66.8569 38.8379 66.9471 38.8169C67.4651 38.7069 69.4099 38.0049 69.5378 37.8809C69.57 37.8529 69.6335 37.8249 69.6786 37.8249C69.8193 37.8249 71.3603 36.9719 71.3603 36.8879C71.3603 36.8809 71.1947 36.7979 70.996 36.7149C70.4523 36.4929 70.4072 36.4719 69.9978 36.2709C69.7936 36.1739 69.6142 36.0909 69.5949 36.0909C69.4992 36.0909 68.6289 35.4259 68.3473 35.1409C67.7585 34.5449 67.2921 33.5799 67.1697 32.7059L67.1256 32.4149H66.4862C66.1338 32.4149 65.6674 32.3869 65.4493 32.3459C65.2377 32.3109 64.8734 32.2489 64.6434 32.2139C64.0739 32.1169 63.4345 31.8259 63.2229 31.5759C63.0822 31.4169 63.0445 31.3059 63.0445 31.0629C63.0445 30.4449 63.5882 29.8279 64.6112 29.2869C65.4429 28.8499 66.1973 28.6759 67.5221 28.6279C68.0658 28.6069 68.5525 28.5799 68.5967 28.5589C68.6611 28.5389 68.6611 28.4899 68.5773 28.3369C68.443 28.0949 68.0594 27.8309 67.5543 27.6229C67.3427 27.5399 67.0741 27.3659 66.9655 27.2409C66.7925 27.0609 66.7539 26.9639 66.7539 26.7139C66.7539 26.3599 66.8818 26.1799 67.2535 25.9719C67.7015 25.7289 68.6795 25.4789 69.1855 25.4789C69.4026 25.4789 69.5056 25.4509 69.5305 25.3689C69.5949 25.1959 69.4155 24.8339 69.064 24.4319L68.7319 24.0579L68.7641 23.5029C68.8083 22.8989 68.8662 22.6359 69.2499 21.3249C69.7494 19.6119 69.8893 19.0559 69.9537 18.5229C70.0171 18.0439 70.0116 17.9539 69.9095 17.7249C69.6979 17.2679 69.3658 17.2739 67.5552 17.7529C66.1476 18.1269 65.5404 18.2319 64.8366 18.2319C63.935 18.2319 63.3591 17.9469 63.0132 17.3299L62.866 17.0599L62.6038 17.3449H62.6029H62.6038V17.3439Z" fill="#006400"/>
<path fill-rule="evenodd" clip-rule="evenodd" d="M48.6707 41.324C48.4214 41.407 47.9863 41.504 47.7047 41.525C46.7387 41.608 46.7065 41.678 46.9246 43.315C47.0653 44.342 47.0653 44.439 46.9816 45.049C46.8657 45.833 46.8721 47.623 46.9881 48.15C47.0911 48.636 47.0138 48.83 46.6817 48.9C46.3367 48.962 46.0929 49.115 46.0165 49.302C45.9273 49.51 46.0294 49.732 46.2281 49.774C46.3119 49.788 46.9825 49.774 47.7185 49.739C49.3175 49.663 51.0259 49.739 54.1917 50.023C54.8697 50.085 54.8513 50.099 54.8513 49.482C54.8513 49.011 54.8384 48.997 54.2432 48.865C53.7823 48.754 53.5909 48.664 53.5394 48.532C53.5201 48.47 53.5394 48.22 53.5771 47.97C53.6866 47.283 53.6029 46.034 53.3535 44.675C53.1484 43.551 53.0913 43.384 52.8871 43.378C52.7399 43.378 52.7206 43.732 52.7592 45.397C52.8034 47.034 52.7528 47.88 52.5991 48.359C52.4584 48.761 52.3241 48.789 50.4178 48.741C49.496 48.72 48.6974 48.679 48.6395 48.644C48.5815 48.609 48.4536 48.443 48.3579 48.262C48.1979 47.971 48.185 47.867 48.1279 46.756C48.0957 46.097 48.0387 45.112 48.0065 44.557C47.9743 44.002 47.943 43.309 47.943 43.01C47.943 42.483 47.943 42.469 48.1482 42.337C48.4932 42.108 49.1464 41.99 50.048 41.99H50.8861L50.9247 41.81C50.9827 41.574 50.8484 41.477 50.2403 41.304C49.6266 41.117 49.2421 41.124 48.6735 41.325H48.6726L48.6707 41.324Z" fill="#006400"/>
<path fill-rule="evenodd" clip-rule="evenodd" d="M51.07 44.1546C51.025 44.2446 50.9228 44.3836 50.8336 44.4666C50.6606 44.6266 49.7526 45.1816 49.6569 45.1816C49.6312 45.1816 49.4775 45.2436 49.3174 45.3266C49.0102 45.4856 48.9853 45.5556 49.1058 45.9156C49.1951 46.1856 49.426 46.2556 49.9633 46.1786C50.3598 46.1306 50.565 45.9776 50.7628 45.6026C50.8391 45.4496 50.9744 45.2906 51.07 45.2426C51.1593 45.1866 51.2485 45.1316 51.2678 45.1106C51.2872 45.0906 51.3709 45.0346 51.4601 44.9866C51.5503 44.9376 51.703 44.7716 51.7996 44.6186C52.0167 44.2996 51.9726 44.1886 51.5954 44.0706C51.2559 43.9666 51.1538 43.9876 51.071 44.1536L51.07 44.1546Z" fill="#006400"/>
<path fill-rule="evenodd" clip-rule="evenodd" d="M51.2378 45.8192C51.1164 45.8952 51.0391 45.9782 50.822 46.2762C50.3804 46.8872 50.131 47.0532 49.6904 47.0532C49.1338 47.0532 49.0307 47.1852 49.2046 47.6572C49.281 47.8582 49.3702 47.9762 49.4668 48.0042C49.6333 48.0452 50.0804 47.8792 50.5165 47.6022C50.6766 47.4982 51.0667 47.3042 51.3666 47.1792C52.0391 46.9022 52.1541 46.7622 52.0446 46.3672C51.8974 45.8122 51.5837 45.6042 51.2387 45.8192H51.2378Z" fill="#006400"/>
<path fill-rule="evenodd" clip-rule="evenodd" d="M48.2659 50.6262C48.2143 50.6472 47.7994 50.6952 47.3385 50.7372C45.355 50.9242 44.6006 51.0702 44.4157 51.2982C44.2556 51.4922 44.2685 51.5412 44.5113 51.7012C44.7864 51.8882 44.8186 51.8742 44.7993 51.6172C44.78 51.3952 44.7864 51.3882 45.1001 51.3402C45.6567 51.2642 47.3459 51.2842 48.8427 51.3892C49.6357 51.4452 50.8005 51.5212 51.4334 51.5622C52.7959 51.6452 53.0011 51.6802 53.0011 51.7982C53.0011 51.9712 50.8704 52.0332 48.977 51.9162C48.0368 51.8542 47.7994 51.8882 47.7295 52.0892C47.678 52.2282 47.7488 52.3872 47.8896 52.4632C48.011 52.5392 53.5697 52.7062 53.7555 52.6442C53.8199 52.6232 54.3121 52.5742 54.8558 52.5402C56.2698 52.4432 56.6415 52.2902 56.647 51.8112C56.647 51.5962 56.4741 51.3882 56.199 51.2702C55.854 51.1242 54.0554 50.8262 52.8723 50.7222C52.0921 50.6522 48.4324 50.5762 48.2668 50.6252L48.2659 50.6262Z" fill="#006400"/>
<path fill-rule="evenodd" clip-rule="evenodd" d="M46.0268 52.5559C46.0268 52.6039 46.1611 52.7149 46.3331 52.8059C46.8962 53.1119 46.9541 53.1459 47.0369 53.3119C47.1519 53.5339 47.094 54.5599 46.9532 54.9279C46.8502 55.1779 46.4352 55.9199 46.3451 56.0029C46.3009 56.0439 45.8133 56.8839 45.6413 57.2239C45.4877 57.5089 45.5318 57.6469 45.8584 57.9799C46.0884 58.2159 46.7287 59.0139 46.7287 59.0689C46.7287 59.0899 46.8566 59.3189 47.0167 59.5829C47.3175 60.0759 47.8484 61.2129 48.117 61.9349C48.3985 62.6839 48.9928 64.5019 49.0959 64.9179C49.1216 65.0289 49.2495 65.4379 49.371 65.8199C49.4924 66.2019 49.7353 66.9919 49.9018 67.5749C50.107 68.2689 50.2477 68.6289 50.3048 68.6289C50.3692 68.6289 50.3811 68.5669 50.3498 68.3659C50.3241 68.2269 50.222 67.4569 50.1198 66.6529C49.8898 64.8969 49.8448 64.5989 49.6663 63.6839C49.532 62.9689 49.1419 61.4299 49.0333 61.1729C49.0011 61.0969 48.841 60.6879 48.6754 60.2709C48.5089 59.8479 48.336 59.4589 48.2918 59.4039C48.2532 59.3479 48.1639 59.1889 48.106 59.0569C48.0425 58.9249 47.9716 58.7999 47.9523 58.7789C47.933 58.7579 47.8309 58.6129 47.7278 58.4529C47.6322 58.2939 47.3957 57.9809 47.2034 57.7589C46.8391 57.3289 46.794 57.1629 46.9541 56.8499C47.0056 56.7459 47.139 56.4269 47.2485 56.1429C47.3571 55.8579 47.5227 55.4359 47.6128 55.2059C47.7536 54.8659 47.7858 54.6859 47.7858 54.1999C47.7858 53.3599 47.5687 52.8739 47.082 52.6389C46.8069 52.5069 46.0268 52.4449 46.0268 52.5559Z" fill="#006400"/>
<path fill-rule="evenodd" clip-rule="evenodd" d="M54.0008 53.1729C53.8729 53.8389 53.9364 54.4209 54.1995 55.0319C54.366 55.4139 54.7948 56.6549 54.7948 56.7449C54.7948 56.7869 54.6798 56.9179 54.539 57.0299C53.8352 57.5849 53.1121 58.5079 52.6834 59.3749C52.5748 59.5969 52.4534 59.8319 52.4276 59.8879C52.1332 60.4149 51.4745 62.5449 51.2445 63.6689C51.1865 63.9319 51.1166 64.2799 51.0844 64.4319C50.9437 65.0699 50.7394 67.2559 50.6621 68.9269C50.6106 70.1199 50.6502 70.2939 50.9887 70.2939C51.2252 70.2939 51.3144 70.1479 51.3659 69.6699C51.7183 66.4099 52.3255 62.9969 52.837 61.3739C53.1378 60.4229 53.2979 60.0349 53.7331 59.1959C54.0275 58.6199 54.2327 58.3359 54.6798 57.8569C54.9935 57.5239 55.2879 57.2529 55.3394 57.2529C55.3909 57.2529 55.4544 57.1969 55.4866 57.1349C55.5381 57.0449 55.3965 56.6909 54.9043 55.6649L54.2649 54.3049L54.2326 53.6599C54.2133 53.1809 54.1811 53.0219 54.1167 53.0219C54.0726 53.0219 54.0146 53.0909 54.0017 53.1749H54.0008H53.9999L54.0008 53.1729Z" fill="#006400"/>
<path fill-rule="evenodd" clip-rule="evenodd" d="M50.273 54.6776C49.9151 54.9126 49.7992 55.1346 49.5112 56.1406C49.3447 56.7376 49.3125 57.6386 49.4468 58.0906C49.6262 58.7016 50.0605 59.3326 50.2914 59.3326C50.33 59.3326 50.3871 59.4016 50.4128 59.4856C50.4515 59.6176 50.4515 61.9896 50.4128 64.2586C50.4064 64.6326 50.4257 64.7096 50.5214 64.7306C50.675 64.7656 50.7836 64.4536 50.9115 63.6346C51.0458 62.7746 51.1608 60.5476 51.1038 59.8956L51.0596 59.3896L51.2832 59.1606C51.5582 58.8906 51.6797 58.6196 51.8076 57.9666C51.9483 57.2936 51.9354 56.7246 51.7754 56.0596C51.5702 55.1786 51.3402 54.7906 50.9308 54.6236C50.6686 54.5126 50.4966 54.5266 50.2721 54.6796L50.273 54.6776ZM50.791 55.7946C50.8167 55.8706 50.894 56.0096 50.9704 56.0926C51.1433 56.2796 51.2712 56.6616 51.2712 56.9876C51.2712 57.2576 51.0541 57.8756 50.9648 57.8756C50.9262 57.8756 50.8885 57.9376 50.8692 58.0216C50.8121 58.2646 50.6842 58.1396 50.537 57.6956C50.3254 57.0576 50.2877 56.5516 50.4211 56.0656C50.537 55.6356 50.7091 55.5106 50.7928 55.7956L50.791 55.7946Z" fill="#006400"/>
<path fill-rule="evenodd" clip-rule="evenodd" d="M9.02899 50.3702L8.94619 60.6891L9.02899 69.4481C9.49175 69.5181 9.87631 69.5521 10.1836 69.5521C11.0585 69.5521 11.9564 69.3831 12.8774 69.0411C13.7983 68.7031 14.6088 68.2411 15.319 67.6601C15.7726 67.2821 16.2446 66.7761 16.7294 66.1451C17.2198 65.5141 17.6089 64.8981 17.9024 64.2971C18.0763 63.9441 18.2594 63.7701 18.4516 63.7701C18.7497 63.7701 18.896 63.9041 18.896 64.1771C18.896 64.4701 18.6761 64.9621 18.2318 65.6581C17.7874 66.3531 17.3016 66.9791 16.7754 67.5311C15.63 68.7281 14.2831 69.5581 12.7347 70.0251C11.8046 70.3081 10.9067 70.4471 10.0502 70.4471C8.79531 70.4471 7.53951 70.1541 6.27543 69.5731C4.25511 68.6491 2.71503 67.1881 1.65703 65.1911C0.782106 63.5271 0.342346 61.7681 0.342346 59.9001C0.342346 57.9971 0.800506 56.2041 1.71223 54.5151C2.68835 52.7171 4.06651 51.3451 5.84487 50.3911C7.14115 49.7101 8.54323 49.3721 10.0465 49.3721C12.6262 49.3721 14.8526 50.3212 16.7303 52.2141C17.6236 53.1181 18.0726 53.7691 18.0726 54.1671C18.0726 54.2711 18.0266 54.3711 17.9401 54.4601C17.8481 54.5441 17.7524 54.5891 17.642 54.5891C17.4636 54.5891 17.2529 54.4001 17.0008 54.0221C16.2308 52.8651 15.2188 51.9501 13.9593 51.2791C12.6989 50.6041 11.3704 50.2661 9.96923 50.2661C9.63895 50.2661 9.32339 50.3012 9.02991 50.3702H9.02899ZM37.6714 56.8241L37.6309 52.7301L37.5895 50.9071C37.5895 50.4351 37.6263 50.1121 37.699 49.9481C37.7726 49.7841 37.9234 49.7001 38.1525 49.7001C38.5003 49.7001 38.6742 49.9982 38.6742 50.5892L38.6604 51.5781L38.6282 54.8071L38.5776 60.0041L38.6282 65.4191L38.6604 69.2151C38.6604 69.5681 38.6236 69.8061 38.5546 69.9301C38.4856 70.0541 38.3485 70.1191 38.147 70.1191C37.9317 70.1191 37.7854 70.0491 37.7072 69.9151C37.629 69.7811 37.5876 69.5321 37.5876 69.1741L37.6106 67.9371L37.6704 60.6341V57.9271L37.1571 57.9071L34.5369 57.8381L28.7648 57.9271L28.7786 61.9461L28.8476 69.8501H20.6284L20.7112 57.2211L20.679 53.8881L20.6606 50.8131L20.6284 49.9691H28.8476L28.8338 50.7291L28.7658 56.8251C29.6821 56.8841 31.1384 56.9141 33.1358 56.9141C34.973 56.9141 36.4855 56.8841 37.6714 56.8251V56.8241Z" fill="#FE8D25"/>
<path fill-rule="evenodd" clip-rule="evenodd" d="M76.3666 60.086V57.686L76.3261 53.882L76.3077 52.139L76.2847 51.049C76.2847 50.534 76.4476 50.273 76.7732 50.273C76.9674 50.273 77.1035 50.332 77.1762 50.455C77.2535 50.573 77.2894 50.798 77.2894 51.137V51.338C77.2848 51.539 77.2802 51.868 77.2802 52.329L77.2397 57.174L77.2075 61.616L77.2434 66.289L77.2894 70.977C75.4696 69.74 72.8034 68.027 69.3001 65.847C65.7921 63.663 62.9493 61.95 60.7763 60.703L60.7901 61.405L60.9262 68.836L60.94 69.828C60.94 70.24 60.7634 70.447 60.4055 70.447C60.0394 70.447 59.8535 70.191 59.8535 69.686L59.8673 68.68L59.8811 67.055L59.9354 59.677L59.8535 49.742C63.4342 52.148 68.9385 55.593 76.3657 60.085L76.3666 60.086ZM89.6017 49.361L100.207 70.183H91.0093L89.7287 67.562H85.2878L81.3723 67.547L80.7118 67.532L79.8295 69.279C79.5719 69.799 79.3897 70.128 79.2913 70.256C79.1873 70.384 79.0604 70.447 78.9058 70.447C78.6022 70.447 78.4532 70.305 78.4532 70.015C78.4532 69.893 78.5387 69.657 78.7108 69.318C78.8828 68.979 79.4891 67.855 80.5259 65.961L88.5649 51.304L89.6008 49.36L89.6017 49.361ZM85.4737 58.83L83.1691 63.036L81.3226 66.501L85.2648 66.59L89.2162 66.501L85.4728 58.829L85.4737 58.83ZM112.437 66.914C113.288 67.537 114.207 68.077 115.185 68.529C116.167 68.985 117.216 69.339 118.343 69.594C118.616 69.653 118.751 69.795 118.751 70.031C118.751 70.35 118.548 70.507 118.146 70.507C117.217 70.507 115.918 70.061 114.248 69.172C112.854 68.431 111.259 67.287 109.463 65.751V66.34L109.476 68.79V70.184H101.425V69.536L101.447 64.843L101.479 59.232L101.452 50.539H106.775C109.161 50.539 110.962 50.613 112.179 50.755C113.398 50.898 114.438 51.168 115.294 51.56C116.688 52.193 117.792 53.234 118.603 54.682C119.355 56.022 119.73 57.43 119.73 58.908C119.73 60.479 119.309 61.956 118.471 63.351C117.117 65.584 115.108 66.772 112.437 66.914H112.436H112.437ZM111.183 66.031L111.817 66.046C113.632 66.046 115.162 65.496 116.416 64.392C117.208 63.7 117.815 62.836 118.24 61.8C118.634 60.852 118.833 59.881 118.833 58.894C118.833 57.215 118.331 55.713 117.321 54.388C116.556 53.362 115.592 52.64 114.433 52.218C113.274 51.796 111.645 51.57 109.545 51.54L109.45 61.185V63.792L109.464 64.47C110.002 65.029 110.577 65.55 111.184 66.031H111.183Z" fill="#FE8D25"/>
</svg>
