<svg width="127" height="91" viewBox="0 0 127 91" fill="none" xmlns="http://www.w3.org/2000/svg">
<path fill-rule="evenodd" clip-rule="evenodd" d="M53.7346 0.33048C53.6266 0.669936 53.4387 1.13506 53.0986 1.87721C52.8833 2.32438 52.2292 3.47738 52.0863 3.62936C52.0413 3.68302 51.9337 3.82622 51.8624 3.93312C51.7906 4.04002 51.5933 4.28176 51.4323 4.46066C51.0473 4.88111 50.8414 5.30114 50.6979 5.9005C50.3128 7.56289 49.0222 8.75221 46.9344 9.36931C46.7641 9.42296 46.1642 9.51191 45.6176 9.57494C45.062 9.6286 44.6052 9.71836 44.6052 9.76242C44.6052 9.8073 44.6588 9.95051 44.7306 10.0843C44.9279 10.4599 45.4747 12.1939 45.7256 13.2312C46.0035 14.3757 46.0394 15.6358 45.7973 15.8328C45.6988 15.9224 45.4209 15.9579 44.9279 15.9493C44.3094 15.9406 44.1302 15.9047 43.7538 15.6905C43.5117 15.5566 43.1628 15.3063 42.9745 15.1362C42.7956 14.9575 42.6069 14.8498 42.5625 14.8771C42.374 14.9936 42.258 15.9501 42.303 16.8975C42.3654 18.1844 42.6523 19.1148 43.5843 20.9653C43.9967 21.7966 44.337 22.512 44.337 22.5477C44.337 22.5924 44.1396 22.6193 43.8887 22.6193C43.5305 22.6193 43.4319 22.6554 43.3508 22.8074C43.1001 23.2633 42.8042 26.9643 42.9927 27.2595C43.1181 27.4651 43.3154 27.3042 43.4321 26.9109C43.5931 26.3741 44.1216 25.3019 44.3458 25.0604C44.6596 24.7385 45.1522 24.551 45.8691 24.5061L46.55 24.4527L46.2008 23.693C45.3581 21.9047 44.364 18.3112 44.6146 18.0075C44.6594 17.9445 44.8925 17.8824 45.1252 17.8555C45.6358 17.8019 47.7329 17.3818 47.7953 17.3188C47.8221 17.3006 47.7597 17.0599 47.6612 16.8002C46.8011 14.4577 47.4552 12.384 49.373 11.365C50.8154 10.5966 51.2636 10.1402 51.3534 9.34442C51.4252 8.73671 51.6937 7.93152 52.0429 7.29708C52.3388 6.73424 53.0645 5.65243 53.2438 5.50004C53.2974 5.44639 53.4141 5.28584 53.4947 5.14264C53.5845 4.9727 53.7274 4.8654 53.8711 4.84745C54.149 4.81134 54.1402 4.73117 53.9697 6.20609C53.826 7.40418 53.8532 7.71671 54.167 8.40521C54.5347 9.22774 55.6638 10.4974 57.509 12.1598C58.7549 13.2863 58.9158 13.4562 59.2117 13.9299C59.7673 14.8326 59.8926 15.9504 59.5699 17.166C59.4714 17.5328 59.3908 17.8367 59.3908 17.8453C59.3908 17.872 60.4842 18.0775 61.4517 18.239C62.0609 18.3374 62.5989 18.4712 62.6344 18.5342C62.8671 18.8924 61.9805 22.3158 61.1735 24.1844C60.9761 24.6222 60.824 25.0424 60.824 25.0959C60.824 25.2297 60.9678 25.2481 61.0479 25.1228C61.0747 25.0692 61.4156 25.0337 61.8006 25.0337C62.4097 25.0337 62.5351 25.0604 62.9115 25.3021C63.4401 25.633 63.6198 25.9278 63.9687 27.0361C64.2283 27.8676 64.2465 27.9035 64.3719 27.724C64.5692 27.4468 64.7034 26.0347 64.6498 24.6848C64.605 23.4867 64.605 23.4773 64.3539 23.2719C64.1654 23.1197 63.9775 23.0665 63.673 23.0665C63.198 23.0665 63.1624 23.0035 63.4039 22.5659C63.9325 21.5914 64.5866 20.1517 64.5866 19.9557C64.5866 19.8665 64.6228 19.7588 64.667 19.7054C64.7119 19.6605 64.8373 19.2764 64.936 18.8474C65.2319 17.6227 65.1687 15.8704 64.8105 15.298C64.7837 15.2533 64.6316 15.3428 64.4702 15.4948C63.9867 15.9685 63.5654 16.2723 63.4035 16.2723C63.3229 16.2723 63.2246 16.3078 63.1974 16.3614C63.1082 16.5048 61.7906 16.4683 61.5935 16.3165C61.4411 16.2003 61.4317 16.0932 61.4681 15.0919C61.4949 14.4842 61.5667 13.7867 61.6299 13.5454C61.8178 12.7857 62.1674 11.6145 62.4001 10.9254C62.5167 10.568 62.5974 10.2279 62.5619 10.1831C62.5351 10.1382 62.3827 10.1115 62.2304 10.12C61.6654 10.1737 60.0439 9.99498 59.4438 9.81628C58.3594 9.50293 57.2661 8.89542 56.9166 8.41276C56.8535 8.33238 56.7013 8.15368 56.5758 8.00129C56.3163 7.69753 55.8863 6.85746 55.671 6.21364C55.5906 5.9719 55.4471 5.14937 55.3483 4.3809C55.2589 3.6212 55.1336 2.77195 55.0792 2.50328C54.9721 1.96656 54.0668 0 53.9327 0C53.8879 0 53.7986 0.15198 53.7354 0.330684L53.7346 0.32946H53.7337L53.7346 0.33048Z" fill="#0E4749"/>
<path fill-rule="evenodd" clip-rule="evenodd" d="M36.1073 21.4911C35.9819 21.7588 35.4711 22.3489 35.3546 22.3489C35.3096 22.3489 35.1573 22.4205 35.0319 22.5189C34.5837 22.832 32.4778 22.8408 31.161 22.5276C30.9371 22.4828 30.5606 22.3938 30.3097 22.3489C30.0676 22.2953 29.6826 22.2151 29.4585 22.1702C27.8458 21.8216 27.0211 21.7412 26.7254 21.9018C26.0351 22.2686 26.2054 23.4036 27.5679 27.2662C28.2488 29.1884 28.3743 30.288 27.9891 30.7256C27.8638 30.869 27.6664 31.083 27.5503 31.2262C27.2812 31.53 27.0933 31.959 27.1556 32.1203C27.2094 32.2638 27.801 32.3619 28.5719 32.3619C28.8677 32.3619 29.1004 32.398 29.1004 32.451C29.1004 32.4957 29.2174 32.5402 29.3515 32.5402C29.6742 32.5402 30.5072 32.88 30.8483 33.1487C31.081 33.3362 31.1174 33.4164 31.1078 33.7833C31.1078 34.1501 31.063 34.257 30.7763 34.543C30.5974 34.7215 30.4087 34.865 30.3551 34.865C30.3013 34.865 30.1942 34.9004 30.104 34.9453C30.0236 34.99 29.7638 35.1153 29.5302 35.2226C29.2879 35.339 29.1002 35.4643 29.1002 35.5084C29.1002 35.5445 29.0379 35.58 28.9661 35.58C28.8043 35.58 28.4463 36.1253 28.5449 36.2236C28.5811 36.2593 29.3329 36.304 30.2206 36.3219C31.1074 36.3486 32.0398 36.4109 32.2815 36.4653C32.5324 36.5276 32.8818 36.5992 33.0695 36.6259C33.2485 36.6528 33.401 36.7063 33.401 36.7511C33.401 36.7958 33.4728 36.8315 33.5621 36.8315C33.84 36.8315 35.1213 37.5194 35.6143 37.9223C36.0713 38.3064 36.4477 38.8607 36.4477 39.1471C36.4477 39.3889 36.1786 39.8713 36.0443 39.8713C35.9819 39.8713 35.9101 39.898 35.8919 39.9344C35.8558 40.0327 35.1125 40.4082 34.9601 40.4082C34.8884 40.4082 34.8346 40.4444 34.8346 40.4884C34.8346 40.5331 34.6823 40.5867 34.5031 40.6135C34.3146 40.6404 33.9382 40.7118 33.6693 40.7657C32.5939 40.9799 31.958 41.0521 30.623 41.1141L29.2344 41.1677L29.1538 41.5251C28.8759 42.7767 28.3114 43.7063 27.254 44.609C26.9407 44.8863 26.1787 45.4136 26.0983 45.4136C26.0621 45.4136 25.8744 45.5301 25.6683 45.6639C25.2297 45.9591 24.5749 46.2628 23.6343 46.6209C23.2405 46.7633 22.9984 46.8626 22.3885 47.1302L22.0752 47.2641L22.3885 47.4254C23.3203 47.9079 23.8852 48.1678 24.6197 48.4354C24.8888 48.5338 25.1935 48.6496 25.2918 48.686C25.3904 48.7221 25.7306 48.8294 26.0533 48.9181C26.376 49.0164 26.7704 49.1235 26.9315 49.1772C27.738 49.4093 27.9083 49.4457 29.1896 49.7047C29.4135 49.7494 29.7987 49.8298 30.0408 49.8834C30.8111 50.0534 31.8779 50.1607 33.1591 50.2053C34.1091 50.2408 34.3866 50.2855 34.3866 50.3753C34.3866 50.4469 34.2428 50.7688 34.0727 51.108C33.7593 51.7166 33.6781 52.0289 33.8486 52.0289C33.9024 52.0289 33.938 51.9842 33.938 51.9398C33.938 51.8861 33.9827 51.8502 34.0277 51.8502C34.0813 51.8502 34.2872 51.7786 34.5027 51.6803C35.5781 51.2158 36.3128 50.9561 36.5637 50.9561C36.6534 50.9561 36.7876 50.92 36.8775 50.8757C37.0213 50.7955 38.4097 50.5362 39.7179 50.3394C40.0674 50.2947 40.6142 50.2056 40.9368 50.1607C41.6981 50.0356 43.8402 50.0356 44.0729 50.1519C44.3056 50.277 44.297 50.8139 44.0641 51.1085C43.8938 51.3231 43.8938 51.3588 44.0193 51.4926C44.3064 51.8057 45.5871 51.9663 46.7524 51.8498C47.2722 51.7961 48.0606 51.716 48.5 51.6711C49.3783 51.5815 50.3187 51.4565 51.2331 51.3043C51.5558 51.2508 51.9946 51.1792 52.2279 51.1429C53.1061 51.0091 53.5723 50.5085 53.85 49.4089C53.9486 49.0066 54.1279 48.4881 54.2446 48.2559C54.6567 47.4513 54.7282 47.1117 54.7196 46.0384C54.7196 45.4756 54.6834 44.8318 54.6391 44.6082C54.5943 44.3846 54.5225 43.6425 54.4963 42.9544C54.4332 41.7475 54.5139 40.6661 54.8192 38.4841C55.1063 36.4462 55.2492 33.2362 55.1063 31.9131C55.0077 31.0196 54.7117 30.0183 54.2637 29.0526C53.9592 28.4002 53.2695 27.3186 53.2245 27.434C53.2157 27.4702 53.3051 27.8278 53.4306 28.2117C53.7445 29.1774 53.8606 30.8133 53.8071 33.3878C53.7713 34.8896 53.7265 35.5783 53.6191 35.936C53.5386 36.2044 53.4754 36.5616 53.4754 36.7134C53.4754 36.8742 53.4392 37.0086 53.3948 37.0086C53.35 37.0086 53.2877 37.1424 53.2607 37.3123C53.1082 38.09 52.929 38.5284 52.7589 38.5284C52.5348 38.5284 51.8627 38.2418 51.8627 38.1528C51.8627 38.1079 51.8089 38.0812 51.7461 38.0812C51.6829 38.0812 51.459 38.0008 51.2531 37.9025C51.0558 37.8042 50.8499 37.724 50.7963 37.724C50.7513 37.724 50.5452 37.6436 50.3481 37.5453C50.142 37.447 49.8193 37.2862 49.6136 37.1879C49.4163 37.0896 49.1922 37.0094 49.1206 37.0094C49.0489 37.0094 48.9951 36.9733 48.9951 36.929C48.9951 36.8841 48.8609 36.7856 48.6992 36.7144C48.4033 36.5718 48.2062 36.4192 47.6603 35.9098C47.3732 35.6414 47.3644 35.6414 47.4276 35.8468C47.5705 36.3293 48.3956 37.3044 48.9243 37.6171C49.0671 37.6975 49.1754 37.7956 49.1754 37.8313C49.1754 37.8674 49.2292 37.9029 49.3008 37.9029C49.3725 37.9029 49.4435 37.9296 49.4619 37.9651C49.4801 38.0098 49.731 38.2155 50.0269 38.4388C51.6578 39.6636 52.3117 40.4949 52.5714 41.6575C52.7503 42.4446 52.6879 44.5454 52.4458 45.9489C52.3205 46.6551 52.1768 47.3791 52.1326 47.5578C52.0878 47.7278 52.0428 47.9781 52.0428 48.1207C52.0428 48.5593 51.4691 49.0503 50.7434 49.2115C50.3133 49.3098 48.9065 49.462 48.3684 49.4705C47.8848 49.4793 46.7556 49.1845 46.7556 49.0595C46.7556 49.0148 46.6933 48.9879 46.6119 48.9879C46.5401 48.9879 46.2442 48.8716 45.9666 48.729C44.9812 48.2372 45.0348 48.2465 43.9144 48.3C42.929 48.3534 42.5976 48.3983 41.4237 48.6307C41.1814 48.6841 40.7342 48.7645 40.4383 48.8092C40.1424 48.8628 39.6768 48.943 39.4079 48.9879C39.1397 49.0415 38.691 49.1044 38.4132 49.1313C37.9114 49.1849 37.9114 49.1849 37.8576 48.9259C37.7858 48.5417 37.4632 48.4787 35.1515 48.3622C33.3145 48.2818 32.2036 48.1747 31.5223 48.0403C31.3969 48.0134 31.101 47.9599 30.8499 47.915C29.9631 47.7539 29.7746 47.7096 29.6856 47.6466C29.6407 47.6105 29.453 47.5574 29.2824 47.5213C29.1121 47.4852 28.7087 47.3338 28.3862 47.1729C27.6691 46.8155 27.6335 46.6541 28.2253 46.3236C28.458 46.1898 28.7183 46.0199 28.8076 45.9481C28.897 45.8765 29.1121 45.7159 29.2824 45.5907C29.4527 45.4654 29.6771 45.3042 29.7754 45.2333C30.0895 45.0003 31.8363 43.2306 32.0872 42.8995C32.2214 42.7208 32.4275 42.5509 32.5355 42.5239C32.6426 42.4972 33.1988 42.3452 33.7629 42.193C34.7217 41.9246 34.9726 41.8711 35.958 41.7012C36.1553 41.6651 36.4148 41.6123 36.5408 41.5674C36.6661 41.5313 36.9354 41.4511 37.1499 41.3887C37.3558 41.3265 37.5263 41.2367 37.5263 41.1918C37.5263 41.1557 37.6069 41.1202 37.7143 41.1202C37.9296 41.1202 38.6375 40.6551 38.9419 40.3244C39.3452 39.8772 39.4349 39.609 39.372 39.028C39.3452 38.7328 39.2826 38.4737 39.2466 38.4466C39.2104 38.4199 39.0763 38.2497 38.9593 38.0798C38.6191 37.5973 38.0725 37.0698 37.4809 36.685C36.9072 36.3009 36.1727 35.9341 35.9756 35.9341C35.9038 35.9341 35.823 35.9074 35.7877 35.8711C35.6983 35.7728 34.9276 35.5847 34.6224 35.5759C34.1294 35.5759 33.225 35.2185 32.9561 34.9327C32.687 34.6375 32.7138 34.0834 33.0184 33.8333C33.2511 33.6277 33.3501 33.5742 33.9598 33.3056C34.5422 33.0467 34.7125 32.4114 34.3275 31.9737C34.2469 31.8935 34.1034 31.8217 34.0048 31.8217C33.7182 31.8217 33.1086 31.6248 32.8491 31.4461C32.7238 31.357 32.58 31.2848 32.535 31.2848C32.4727 31.2848 32.2392 31.106 31.7018 30.6228C31.2268 30.2025 30.5191 29.1925 30.0621 28.2898C29.1035 26.3859 28.8074 24.3114 29.4883 24.3114C29.5869 24.3114 29.9989 24.5083 30.3931 24.7404C30.7966 24.9726 31.262 25.2229 31.4323 25.2857C31.6026 25.3479 31.9159 25.4826 32.1226 25.5715C32.3373 25.6699 32.5612 25.7415 32.6332 25.7415C32.705 25.7415 32.7949 25.7776 32.8217 25.8306C32.8485 25.8753 32.9921 25.9198 33.1348 25.9198C33.2785 25.9198 33.4127 25.9559 33.4392 26.0001C33.5734 26.2058 35.7873 26.3127 36.02 26.1252C36.1185 26.036 36.1453 25.8479 36.1091 25.2759C36.0823 24.6321 36.1003 24.5071 36.2529 24.3281C36.5307 24.0156 36.7459 24.0778 37.1577 24.6233C37.6059 25.2223 38.7082 26.3127 39.0575 26.5187C39.2002 26.6078 39.3172 26.7062 39.3172 26.7421C39.3172 26.7782 39.3619 26.8137 39.4069 26.8137C39.4607 26.8137 39.5858 26.8941 39.6934 26.9836C39.792 27.0819 40.088 27.2609 40.3387 27.3859C40.5896 27.5112 40.9215 27.6811 41.0644 27.7615C41.5038 28.012 41.6382 28.0652 41.7813 28.0652C42.0236 28.0652 41.8081 27.7968 40.3295 26.3131C39.4065 25.3834 38.851 24.7576 38.7434 24.5073C38.6448 24.3018 38.5373 24.1317 38.4925 24.1317C38.4563 24.1317 38.4207 24.0515 38.4207 23.9532C38.4207 23.8549 38.3845 23.7745 38.331 23.7745C38.2862 23.7745 38.2416 23.7208 38.2416 23.6582C38.2328 23.4261 37.4527 22.228 36.9957 21.7628C36.4669 21.2261 36.2612 21.1639 36.1089 21.4856L36.1069 21.4905H36.1071L36.1073 21.4911Z" fill="#0E4749"/>
<path fill-rule="evenodd" clip-rule="evenodd" d="M70.8651 21.8756C70.6056 22.1261 70.2742 22.6618 69.8166 23.5649C68.9653 25.2542 68.8578 25.4335 68.3468 25.9248C67.5129 26.7293 67.1365 27.0243 66.2229 27.6322C65.7211 27.9807 65.2997 28.2759 65.2997 28.3028C65.2997 28.5084 67.5039 27.4984 67.6115 27.2385C67.6297 27.2024 67.6832 27.1763 67.728 27.1763C67.8984 27.1763 68.8923 26.3444 69.7534 25.4776C70.2464 24.9857 70.6948 24.5841 70.7482 24.5841C70.8019 24.5841 70.9271 24.691 71.0352 24.8258C71.2144 25.0492 71.2326 25.1477 71.1876 25.7642C71.1514 26.2828 71.1694 26.4796 71.2682 26.56C71.4119 26.6763 73.0246 26.6222 73.5886 26.4796C75.0136 26.1222 76.2325 25.6035 77.2718 24.9331C77.8186 24.5757 78.0513 24.5216 78.2934 24.674C78.4005 24.7363 78.4275 24.9425 78.4189 25.5855C78.4101 26.3995 78.3204 26.8103 77.9527 27.803C77.7736 28.2767 77.1195 29.5103 76.8324 29.8952C76.2948 30.6376 76.0347 30.9232 75.5426 31.3342C74.8616 31.8971 74.3868 32.1388 73.7951 32.219C72.6748 32.3803 72.7913 33.5423 73.9568 33.8728C74.8524 34.1233 75.2201 34.8385 74.7361 35.3661C74.5122 35.5982 74.2073 35.7598 73.9746 35.7598C73.8675 35.7598 73.6616 35.7959 73.509 35.8402C73.3565 35.8938 72.8731 36.037 72.4249 36.1709C71.1436 36.5464 70.0059 37.1366 69.4229 37.7264C68.9574 38.2088 68.8138 38.361 68.6789 38.5844C68.5803 38.7457 68.0785 40.6678 68.0785 40.882C68.0785 41.1593 68.4367 41.5077 68.8936 41.6866C69.1089 41.767 69.8166 41.9371 70.4527 42.0622C71.7695 42.3213 72.6656 42.5267 73.0332 42.6517C73.6967 42.8753 73.8221 42.9555 74.0012 43.2603C74.575 44.226 75.1481 44.9675 75.7393 45.531C76.1069 45.8796 76.8684 46.3084 77.1279 46.3084C77.4058 46.3084 77.6027 46.5318 77.5491 46.7729C77.4505 47.1397 76.4288 47.631 74.843 48.0781C74.5024 48.1765 74.1173 48.275 73.9918 48.3015C73.8662 48.3284 73.3287 48.4353 72.7909 48.5433C71.725 48.7487 70.578 48.8652 68.7496 48.9455C66.9036 49.0345 66.2674 49.2228 66.348 49.6518C66.393 49.8752 66.3842 49.8839 65.8998 49.8839C65.6307 49.8839 64.9318 49.7856 64.3494 49.6604C61.9305 49.1418 61.7687 49.1236 60.7382 49.2401C59.5019 49.3739 57.9331 49.3739 57.468 49.2401C57.2706 49.1779 56.9574 48.981 56.7776 48.7929C56.2311 48.2293 56.1055 48.3193 55.7021 49.4808C55.3528 50.5182 55.3528 51.1616 55.7021 51.9037C56.0423 52.6192 56.1053 52.9499 55.9894 53.3073C55.7741 53.9597 55.1555 54.3173 53.1578 54.997C52.5666 55.1939 52.0113 55.3899 51.9301 55.4348C51.5001 55.6669 51.5269 56.3469 51.9839 56.7761C52.4139 57.1784 52.5842 57.1247 53.3281 56.365C54.0452 55.6323 54.4838 55.3905 55.2721 55.292C56.0697 55.1937 56.518 54.9252 56.8138 54.3536C57.0377 53.9331 57.0647 53.7899 57.0199 53.3705C56.993 53.102 56.9394 52.5125 56.9128 52.0741C56.859 51.2879 56.8678 51.2609 57.1187 50.9743L57.3698 50.6706L59.3858 50.6169C60.4967 50.5902 62.047 50.572 62.8359 50.5808C64.1975 50.6075 64.4848 50.6438 66.5551 51.0545C66.8236 51.1081 67.4782 51.2691 68.0071 51.4127C68.5359 51.5551 69.0109 51.6716 69.0557 51.6716C69.1543 51.6716 69.4771 51.8054 70.4001 52.2171C70.6148 52.3154 70.8034 52.3783 70.8214 52.3605C70.8751 52.3069 70.4811 51.386 70.3016 51.1445C70.2122 51.0282 70.1405 50.858 70.1405 50.7689C70.1405 50.6169 70.2122 50.599 70.7496 50.599C71.4391 50.599 72.6314 50.4376 74.7551 50.0712C75.051 50.0178 75.6149 49.8927 76.0096 49.7854C76.4042 49.6871 76.8254 49.5798 76.951 49.5524C77.6767 49.41 80.4011 48.5063 80.5803 48.3458C80.6253 48.3103 80.7144 48.2742 80.7776 48.2742C80.9749 48.2742 83.1344 47.1746 83.1344 47.0673C83.1344 47.0585 82.9017 46.951 82.6238 46.8439C81.8623 46.5581 81.7994 46.5314 81.2258 46.2715C80.9391 46.1463 80.6882 46.0394 80.6617 46.0394C80.5275 46.0394 79.3086 45.1813 78.9142 44.8145C78.0897 44.0457 77.4356 42.8027 77.2653 41.6762L77.2029 41.3006H76.3067C75.8137 41.3006 75.1596 41.2645 74.8547 41.2115C74.5588 41.1668 74.0482 41.0864 73.7256 41.0416C72.9279 40.9165 72.0323 40.5409 71.7364 40.219C71.5391 40.0134 71.4855 39.8706 71.4855 39.5573C71.4855 38.7615 72.247 37.9659 73.6806 37.269C74.8457 36.7053 75.903 36.482 77.7579 36.4197C78.5193 36.393 79.2011 36.3575 79.2632 36.3308C79.353 36.3041 79.353 36.2416 79.2364 36.0442C79.0479 35.7318 78.5108 35.3918 77.8029 35.1233C77.507 35.0164 77.1305 34.7926 76.9784 34.6315C76.7361 34.3993 76.6825 34.2741 76.6825 33.9524C76.6825 33.4964 76.8614 33.2645 77.3816 32.9958C78.0088 32.6833 79.3794 32.3612 80.0879 32.3612C80.3924 32.3612 80.5361 32.3257 80.5715 32.2188C80.6606 31.9954 80.4097 31.5301 79.9176 31.0113L79.4518 30.5288L79.4967 29.8134C79.5591 29.036 79.6395 28.6957 80.1777 27.0064C80.8768 24.7985 81.0739 24.0828 81.163 23.3947C81.2524 22.7776 81.2434 22.662 81.1007 22.3668C80.8048 21.777 80.3394 21.7858 77.8026 22.4029C75.8311 22.8854 74.9802 23.02 73.994 23.02C72.7308 23.02 71.9245 22.6532 71.4399 21.8574L71.234 21.5088L70.8664 21.8756L70.8651 21.876L70.8643 21.8764L70.8651 21.8756Z" fill="#0E4749"/>
<path fill-rule="evenodd" clip-rule="evenodd" d="M51.3593 52.78C51.0099 52.8869 50.4001 53.0122 50.0063 53.0391C48.6533 53.146 48.6083 53.236 48.913 55.3455C49.1103 56.6689 49.1103 56.7939 48.9935 57.5802C48.8318 58.5902 48.8412 60.897 49.0023 61.5763C49.1461 62.202 49.0379 62.4523 48.5723 62.5418C48.0887 62.6222 47.7479 62.8191 47.6405 63.0606C47.515 63.3291 47.6587 63.6149 47.9364 63.6683C48.0529 63.6865 48.9935 63.6683 50.0247 63.6237C52.2648 63.5253 54.6576 63.6237 59.0925 63.9905C60.0425 64.0708 60.0155 64.0888 60.0155 63.293C60.0155 62.6853 59.9973 62.6673 59.1643 62.4972C58.5189 62.3538 58.2498 62.2381 58.1789 62.0682C58.1521 61.9878 58.1789 61.6659 58.2327 61.344C58.385 60.4592 58.2689 58.8494 57.9196 57.0975C57.6325 55.6489 57.552 55.4343 57.2657 55.4255C57.0598 55.4255 57.033 55.8812 57.0866 58.0271C57.1489 60.1367 57.078 61.2277 56.8627 61.8448C56.6653 62.3627 56.4776 62.3991 53.8069 62.3366C52.5163 62.3099 51.3968 62.2565 51.3162 62.2116C51.2356 62.1669 51.0567 61.9527 50.9218 61.7197C50.6979 61.3442 50.6795 61.2103 50.5989 59.7795C50.5541 58.9302 50.4736 57.6605 50.4286 56.9457C50.3836 56.2303 50.3392 55.3368 50.3392 54.9518C50.3392 54.2725 50.3392 54.2543 50.6263 54.0844C51.1099 53.7892 52.0237 53.6372 53.2876 53.6372H54.4617L54.5155 53.4051C54.5958 53.1013 54.4083 52.9761 53.5567 52.7527C52.6968 52.5112 52.1587 52.5205 51.3616 52.7796L51.3602 52.78L51.3596 52.7802L51.3593 52.78Z" fill="#0E4749"/>
<path fill-rule="evenodd" clip-rule="evenodd" d="M54.7185 56.4279C54.6553 56.5442 54.5126 56.7231 54.387 56.8302C54.1447 57.0358 52.8727 57.751 52.7387 57.751C52.7025 57.751 52.4876 57.8312 52.2637 57.9385C51.8337 58.1441 51.7981 58.2337 51.9678 58.6982C52.0932 59.0466 52.4161 59.1358 53.1687 59.0377C53.7241 58.9754 54.0114 58.7786 54.2891 58.2953C54.3962 58.0984 54.585 57.893 54.7191 57.8308C54.8444 57.7592 54.97 57.6874 54.997 57.6609C55.0238 57.6341 55.1407 57.5625 55.2661 57.5001C55.3914 57.4371 55.6063 57.2229 55.7409 57.0262C56.0453 56.6152 55.9832 56.4722 55.4542 56.32C54.9794 56.1861 54.8356 56.2131 54.7189 56.4269L54.7181 56.4277H54.7183L54.7185 56.4279Z" fill="#0E4749"/>
<path fill-rule="evenodd" clip-rule="evenodd" d="M54.9502 58.5734C54.7798 58.6718 54.6723 58.7791 54.3674 59.163C53.7487 59.9502 53.3994 60.1644 52.7813 60.1644C52.002 60.1644 51.8583 60.3344 52.1004 60.9421C52.2075 61.2012 52.3331 61.3531 52.468 61.3892C52.7007 61.4429 53.3278 61.2279 53.9378 60.8705C54.1617 60.7366 54.7085 60.4863 55.1291 60.3252C56.0705 59.9678 56.2314 59.7885 56.0791 59.2791C55.8732 58.5639 55.4338 58.296 54.95 58.573V58.5734H54.9502Z" fill="#0E4749"/>
<path fill-rule="evenodd" clip-rule="evenodd" d="M50.7862 64.7695C50.7144 64.7962 50.1323 64.8586 49.4867 64.9129C46.7089 65.1544 45.6516 65.3419 45.3919 65.6369C45.168 65.8874 45.1858 65.9494 45.526 66.1556C45.911 66.3972 45.956 66.379 45.9292 66.0479C45.9023 65.7621 45.9111 65.7527 46.3505 65.6905C47.1297 65.5922 49.4962 65.6189 51.5927 65.7536C52.7036 65.8252 54.3345 65.9235 55.2217 65.9769C57.1301 66.0838 57.4168 66.1291 57.4168 66.2807C57.4168 66.5041 54.4329 66.5845 51.7804 66.4329C50.4627 66.3525 50.1315 66.3972 50.0329 66.6563C49.9611 66.835 50.0597 67.0404 50.2568 67.1387C50.4271 67.2371 58.2138 67.4519 58.4733 67.3717C58.5631 67.345 59.2526 67.2821 60.0151 67.2379C61.9952 67.1128 62.5154 66.916 62.5242 66.2987C62.5242 66.0214 62.2819 65.7532 61.8969 65.6012C61.4133 65.4131 58.895 65.0287 57.2371 64.8949C56.1437 64.8054 51.0183 64.7068 50.7856 64.7697L50.786 64.7693L50.7862 64.7695Z" fill="#0E4749"/>
<path fill-rule="evenodd" clip-rule="evenodd" d="M47.6475 67.2545C47.6475 67.3167 47.8354 67.4599 48.0775 67.5764C48.8664 67.9702 48.9469 68.0148 49.0629 68.2288C49.2246 68.5152 49.1434 69.8378 48.9463 70.3115C48.8026 70.6336 48.2206 71.5897 48.0951 71.697C48.0327 71.7507 47.351 72.8323 47.1097 73.2707C46.895 73.6375 46.9572 73.816 47.4142 74.2452C47.7368 74.549 48.6331 75.5775 48.6331 75.6487C48.6331 75.6756 48.8122 75.9708 49.0363 76.3107C49.4575 76.9453 50.2016 78.4115 50.5778 79.3413C50.9725 80.3071 51.8053 82.6492 51.9491 83.1859C51.9853 83.3293 52.1638 83.8564 52.3341 84.3483C52.5044 84.8401 52.8447 85.8591 53.0782 86.61C53.3653 87.5042 53.5618 87.9687 53.6423 87.9687C53.7321 87.9687 53.7495 87.8883 53.7055 87.6292C53.6693 87.4507 53.5264 86.4581 53.3829 85.4215C53.0602 83.1594 52.9978 82.7752 52.7467 81.5953C52.5588 80.6745 52.0122 78.6899 51.8599 78.3593C51.8151 78.2609 51.5908 77.7336 51.3581 77.1967C51.1254 76.6514 50.8833 76.1506 50.8201 76.0789C50.7664 76.0073 50.641 75.8017 50.5605 75.6318C50.4711 75.4619 50.3725 75.3011 50.3458 75.2744C50.319 75.2477 50.1754 75.0602 50.0319 74.8539C49.8977 74.6483 49.5663 74.2462 49.2974 73.9598C48.7868 73.4057 48.7236 73.1913 48.9482 72.7886C49.0199 72.6548 49.2076 72.2431 49.3606 71.8763C49.5129 71.5096 49.7456 70.9649 49.8712 70.6695C50.0685 70.2319 50.1133 69.9989 50.1133 69.3731C50.1133 68.2908 49.8088 67.6652 49.1271 67.3614C48.742 67.1915 47.6487 67.1109 47.6487 67.2545L47.6479 67.2551L47.6477 67.2547L47.6475 67.2545Z" fill="#0E4749"/>
<path fill-rule="evenodd" clip-rule="evenodd" d="M58.8123 68.0499C58.6332 68.9077 58.7226 69.6589 59.0902 70.4459C59.3237 70.9378 59.9241 72.5381 59.9241 72.6536C59.9241 72.707 59.7623 72.877 59.5658 73.0204C58.5796 73.7358 57.5673 74.9243 56.9669 76.0422C56.8146 76.328 56.6442 76.6318 56.6087 76.7036C56.1966 77.3829 55.2736 80.1277 54.9512 81.5759C54.8706 81.9154 54.772 82.363 54.7273 82.559C54.5299 83.3815 54.2437 86.1978 54.1357 88.3522C54.0639 89.8902 54.1181 90.1131 54.5925 90.1131C54.924 90.1131 55.0493 89.925 55.1211 89.3086C55.6141 85.107 56.4655 80.7083 57.182 78.6169C57.6034 77.3921 57.8273 76.8915 58.4367 75.8099C58.8487 75.0675 59.1358 74.7016 59.7631 74.0845C60.2026 73.6554 60.6144 73.3068 60.6862 73.3068C60.7579 73.3068 60.8473 73.2352 60.8923 73.1546C60.964 73.0381 60.7669 72.5822 60.0772 71.2593L59.181 69.5071L59.1362 68.6752C59.1094 68.0581 59.0644 67.8527 58.9745 67.8527C58.9121 67.8527 58.8317 67.9418 58.8135 68.0495H58.8123V68.0497V68.0499Z" fill="#0E4749"/>
<path fill-rule="evenodd" clip-rule="evenodd" d="M53.6006 69.9899C53.0988 70.2936 52.9371 70.5796 52.5339 71.876C52.3012 72.6449 52.256 73.8069 52.4447 74.3885C52.6956 75.1755 53.3045 75.9887 53.6272 75.9887C53.681 75.9887 53.7613 76.0778 53.7975 76.1855C53.8513 76.3555 53.8513 79.4128 53.7975 82.3365C53.7887 82.8188 53.8157 82.9175 53.9499 82.944C54.1646 82.9889 54.3175 82.5866 54.4966 81.5312C54.6852 80.4228 54.8459 77.5527 54.7657 76.7123L54.7034 76.0599L55.0166 75.7647C55.4017 75.4161 55.572 75.0672 55.7511 74.2265C55.9484 73.3591 55.9302 72.6263 55.7061 71.7683C55.4192 70.6331 55.097 70.1324 54.5236 69.9176C54.156 69.7742 53.9147 69.7926 53.6004 69.9892V69.9896H53.6006V69.9899ZM54.3263 71.4289C54.3625 71.5272 54.4701 71.7061 54.5774 71.813C54.8197 72.0545 54.9986 72.5458 54.9986 72.966C54.9986 73.3144 54.6942 74.1102 54.5686 74.1102C54.5148 74.1102 54.4615 74.1906 54.4345 74.2983C54.3541 74.6111 54.1748 74.4505 53.9689 73.8781C53.673 73.0556 53.6194 72.403 53.8071 71.7771C53.9689 71.2228 54.2104 71.0619 54.3271 71.4285H54.3265H54.3263V71.4289Z" fill="#0E4749"/>
<path d="M14.241 71.2178L15.1493 69.2704H16.0161L16.4073 77.3853H15.4851C14.8839 75.1038 14.1294 73.4165 13.2164 72.3383C12.0887 70.9811 10.7428 70.3022 9.17266 70.3022C7.48163 70.3022 6.10284 71.0552 5.03547 72.5609C3.96871 74.0715 3.43768 76.6236 3.43768 80.2154C3.43768 83.2411 4.04804 85.5461 5.26857 87.1365C6.30711 88.4798 7.76095 89.1539 9.63867 89.1539C11.2735 89.1539 12.6527 88.6284 13.762 87.5784C14.871 86.5284 15.5974 84.9433 15.9329 82.8237H16.9109C16.6265 85.2218 15.8018 87.0716 14.4374 88.3593C13.0723 89.651 11.3536 90.2977 9.27572 90.2977C7.58898 90.2977 6.04293 89.8748 4.63551 89.0335C3.2287 88.1873 2.10571 86.9747 1.26245 85.3899C0.41918 83.8097 0 82.0716 0 80.1842C0 78.1811 0.433493 76.2984 1.30416 74.5375C2.17544 72.7759 3.28452 71.456 4.64451 70.5725C6.00019 69.6851 7.45812 69.2435 9.02851 69.2435C9.89938 69.2435 10.7471 69.392 11.5677 69.6851C12.3875 69.9824 13.2769 70.4936 14.2417 71.2192V71.2178H14.2413H14.241ZM19.5704 69.661H28.2075V70.6925H26.6144C26.0603 70.6925 25.6965 70.7902 25.5243 70.9856C25.3567 71.1804 25.2728 71.6549 25.2728 72.4077V78.6126H34.4414V72.4077C34.4414 71.6268 34.3623 71.1482 34.204 70.9664C34.041 70.7851 33.6634 70.6923 33.0714 70.6923H31.5904V69.6608H40.2275V70.6923H38.653C38.257 70.6923 37.9821 70.7433 37.8239 70.8408C37.6609 70.9432 37.5308 71.115 37.4327 71.3569C37.3771 71.5148 37.3491 71.9144 37.3491 72.5695V87.0335C37.3491 87.735 37.4096 88.153 37.5264 88.3024C37.7638 88.6088 38.1972 88.7622 38.8305 88.7622H40.2279V89.7942H31.5908V88.7622H33.0718C33.6542 88.7622 34.0545 88.6043 34.2645 88.2883C34.3811 88.1163 34.4418 87.6612 34.4418 86.9311V79.9504H25.2732V87.0382C25.2732 87.7448 25.3289 88.1673 25.4362 88.3164C25.665 88.6137 26.0611 88.763 26.615 88.763H28.2081V89.795H19.571V88.763H21.2199C21.5137 88.763 21.7417 88.7026 21.9143 88.5861C22.0916 88.4699 22.2175 88.3024 22.2967 88.0841C22.3429 87.9356 22.3664 87.5539 22.3664 86.9268V72.4073C22.3664 71.6543 22.2827 71.1804 22.1149 70.9852C21.9472 70.7898 21.5789 70.6921 21.0154 70.6921H19.571V69.6606L19.5701 69.661H19.5697H19.5704Z" fill="#D77400"/>
<path d="M64.6777 69.6749H69.4905L81.7009 85.5011V74.0536C81.7009 72.9012 81.44 72.0505 80.9135 71.4977C80.434 70.9862 79.716 70.7259 78.7658 70.7072V69.6758H85.7815V70.7072C85.0644 70.7072 84.5237 70.8049 84.1691 71.0044C83.815 71.2043 83.5077 71.5672 83.2421 72.0966C82.9764 72.6219 82.8462 73.1982 82.8462 73.8206V89.8093H81.5884L68.9542 73.3094V85.4776C68.9542 86.5794 69.2341 87.3972 69.788 87.9405C70.3422 88.4799 71.1993 88.7583 72.3643 88.7771V89.8091H64.6777V88.7771C65.6416 88.7398 66.4019 88.4236 66.9652 87.8336C67.529 87.2385 67.8087 86.5137 67.8087 85.6536V72.0262L67.576 71.7706C67.1425 71.2782 66.8307 70.9848 66.6395 70.8965C66.369 70.7704 66.0244 70.7057 65.6009 70.7057H64.6788V69.6743L64.6779 69.6749H64.6777ZM96.0681 69.2565H97.0185L104.249 87.6667C104.537 88.4056 105.134 88.7777 106.033 88.7777H106.661V89.8097H98.611V88.7777H99.2535C100.087 88.7777 100.679 88.6894 101.024 88.5078C101.261 88.3779 101.383 88.1826 101.383 87.9223C101.383 87.7691 101.35 87.6065 101.285 87.4344L99.617 83.1722H91.6412L90.6955 85.6171C90.4485 86.2677 90.3225 86.7836 90.3225 87.1653C90.3225 87.6063 90.5325 87.9878 90.9472 88.3038C91.3619 88.6196 91.963 88.7777 92.7546 88.7777H93.4389V89.8097H86.1154V88.7777C86.8981 88.7777 87.5175 88.6055 87.9743 88.2663C88.4311 87.9268 88.8505 87.2858 89.232 86.3328L96.0661 69.2565L96.0679 69.2569V69.2567L96.0681 69.2565ZM95.6904 73.1285L92.0941 82.1128H99.2032L95.6906 73.1285H95.6904ZM107.225 69.676H117.651C119.673 69.676 121.238 70.1358 122.352 71.0519C123.465 71.9677 124.024 73.1715 124.024 74.6587C124.024 75.5461 123.801 76.3368 123.358 77.034C122.915 77.7266 122.277 78.2797 121.438 78.6932C120.605 79.1069 119.29 79.4047 117.497 79.5855C118.807 79.9388 119.706 80.287 120.2 80.6269C120.693 80.9663 121.089 81.4078 121.383 81.9468C121.681 82.4861 122.022 83.5826 122.408 85.2422C122.683 86.4321 122.976 87.2455 123.288 87.6871C123.526 88.0266 123.777 88.1939 124.052 88.1939C124.337 88.1939 124.598 87.9845 124.84 87.5708C125.077 87.1571 125.226 86.4278 125.282 85.377H126.205C126.032 88.4631 124.891 90.0064 122.781 90.0064C122.114 90.0064 121.542 89.8391 121.053 89.5044C120.568 89.1649 120.2 88.6724 119.958 88.0219C119.767 87.5294 119.553 86.2463 119.314 84.1687C119.179 82.9653 118.96 82.1053 118.667 81.5985C118.369 81.0918 117.908 80.6828 117.278 80.3764C116.65 80.0653 115.899 79.9119 115.028 79.9119H113.375V87.8134C113.375 88.1482 113.458 88.385 113.631 88.5201C113.845 88.6922 114.185 88.7804 114.642 88.7804H116.561V89.8124H107.225V88.7804H109.2C109.638 88.7804 109.955 88.6922 110.159 88.5201C110.365 88.3481 110.467 88.1159 110.467 87.8134V71.7413C110.467 71.3971 110.364 71.1415 110.155 70.9695C109.945 70.7973 109.628 70.7092 109.2 70.7092H107.225V69.6778V69.6764V69.6762L107.225 69.676ZM113.375 78.9339H115.769C117.372 78.9339 118.625 78.632 119.533 78.0324C120.442 77.428 120.894 76.3592 120.894 74.8212C120.894 73.7617 120.721 72.9251 120.381 72.3112C120.041 71.6929 119.589 71.2747 119.035 71.047C118.481 70.8196 117.386 70.7076 115.755 70.7076C114.679 70.7076 114.013 70.7818 113.756 70.9306C113.5 71.0791 113.375 71.3347 113.375 71.6976V78.9345L113.375 78.9337L113.375 78.9339H113.375Z" fill="#D77400"/>
<path d="M64.5631 63.7219V62.544H65.744V63.7219H64.5631ZM71.7284 61.7429L72.8029 61.8843C72.6355 62.5067 72.3228 62.9916 71.8662 63.3352C71.4096 63.6787 70.8271 63.8517 70.1165 63.8517C69.223 63.8517 68.5144 63.5769 67.9912 63.0271C67.4677 62.4794 67.206 61.7076 67.206 60.7162C67.206 59.6913 67.4698 58.8943 67.9989 58.3286C68.5283 57.7611 69.2152 57.4783 70.0593 57.4783C70.876 57.4783 71.5432 57.7551 72.0609 58.3108C72.5784 58.8665 72.8381 59.6481 72.8381 60.6552C72.8381 60.7162 72.8361 60.8084 72.8324 60.9302H68.2687C68.3081 61.5997 68.4971 62.1142 68.8394 62.4696C69.1798 62.8249 69.607 63.0037 70.1165 63.0037C70.4964 63.0037 70.8212 62.9035 71.0888 62.7034C71.3585 62.503 71.571 62.183 71.7284 61.7431H71.7282L71.7284 61.7429ZM68.3278 60.0818H71.7403C71.6949 59.5673 71.5632 59.1825 71.3485 58.9255C71.0199 58.5269 70.5909 58.3265 70.0654 58.3265C69.5892 58.3265 69.1898 58.4857 68.8649 58.8035C68.542 59.1215 68.3631 59.5477 68.3275 60.0816H68.3278V60.0818ZM78.0713 63.7219V62.9465C77.6836 63.5491 77.1129 63.8517 76.3592 63.8517C75.8711 63.8517 75.4225 63.7181 75.0152 63.449C74.6058 63.1819 74.2889 62.8068 74.0627 62.3278C73.8384 61.847 73.7264 61.2949 73.7264 60.6707C73.7264 60.062 73.8286 59.5104 74.0312 59.0136C74.2359 58.5189 74.541 58.1378 74.9483 57.8749C75.3538 57.6099 75.8104 57.4783 76.3122 57.4783C76.6821 57.4783 77.0109 57.5568 77.2982 57.7119C77.5855 57.8669 77.8198 58.0711 78.0008 58.3204V55.2869H79.0399V63.7217H78.0717L78.0713 63.7219ZM74.7886 60.6727C74.7886 61.4543 74.9541 62.0373 75.2865 62.4241C75.6172 62.8109 76.009 63.0032 76.4594 63.0032C76.9142 63.0032 77.2998 62.8186 77.6186 62.4496C77.9355 62.0805 78.095 61.5171 78.095 60.759C78.095 59.9265 77.9337 59.3139 77.6088 58.9234C77.2861 58.5328 76.8866 58.3382 76.4122 58.3382C75.9499 58.3382 75.564 58.5248 75.253 58.8998C74.944 59.2747 74.7886 59.8657 74.7886 60.6727V60.673V60.6727ZM84.6858 63.7219V62.8129C84.2095 63.5059 83.564 63.8517 82.7471 63.8517C82.387 63.8517 82.0504 63.7829 81.7376 63.6454C81.4247 63.5059 81.1923 63.3331 81.0409 63.125C80.8894 62.9149 80.7831 62.6597 80.7222 62.3574C80.6807 62.1532 80.6592 61.8313 80.6592 61.3914V57.6079H81.6983V60.9908C81.6983 61.5306 81.72 61.8957 81.7613 62.0824C81.8263 62.3551 81.964 62.5673 82.1764 62.7223C82.387 62.8774 82.6469 62.9559 82.9577 62.9559C83.2687 62.9559 83.5599 62.8774 83.8317 62.7185C84.1032 62.5593 84.296 62.3415 84.4103 62.0685C84.5224 61.7958 84.5796 61.3969 84.5796 60.8767V57.6076H85.6186V63.7217H84.6858H84.686L84.6858 63.7219Z" fill="#D77400"/>
</svg>
