<svg width="32" height="32" viewBox="0 0 32 32" fill="none" xmlns="http://www.w3.org/2000/svg">
<path d="M32 16C32 24.8375 24.8375 32 16 32C7.1625 32 0 24.8375 0 16C0 7.1625 7.1625 0 16 0C24.8375 0 32 7.1625 32 16Z" fill="#CD201F"/>
<path d="M24.4437 12.1625C24.3 10.9188 24 10.5563 23.7875 10.3875C23.45 10.125 22.8375 10.0313 22.0187 9.97502C20.7062 9.88752 18.475 9.83127 16.0687 9.83127C13.6562 9.83127 11.4312 9.88127 10.1187 9.97502C9.29999 10.0313 8.68749 10.125 8.34999 10.3875C8.13749 10.5563 7.84374 10.9188 7.69374 12.1625C7.48124 13.9563 7.48124 18.0438 7.69374 19.8375C7.84374 21.0813 8.13749 21.4438 8.34999 21.6125C8.68749 21.875 9.29999 21.9688 10.1187 22.025C11.4312 22.1125 13.6562 22.1688 16.0687 22.1688C18.4812 22.1688 20.7062 22.1125 22.0187 22.025C22.8375 21.9688 23.45 21.875 23.7875 21.6125C24 21.45 24.2937 21.0813 24.4437 19.8375C24.6562 18.0438 24.6562 13.9563 24.4437 12.1625ZM14.0062 18.6813V13.3125L19.1562 15.9938L14.0062 18.6813Z" fill="white"/>
</svg>
