<svg width="458" height="57" viewBox="0 0 458 57" fill="none" xmlns="http://www.w3.org/2000/svg">
<path d="M6.608 18.312L3.95114 16.9188L3.94444 16.9315L3.93787 16.9444L6.608 18.312ZM14.416 10.184L15.9009 12.7908L15.9133 12.7837L15.9256 12.7765L14.416 10.184ZM36.816 9.48L35.5044 12.1781L35.5268 12.189L35.5494 12.1995L36.816 9.48ZM44.368 15.688L41.9268 17.4317L41.9359 17.4444L41.9451 17.4571L44.368 15.688ZM48.272 25.096V28.096H51.8552L51.2253 24.5686L48.272 25.096ZM33.296 25.096L30.5676 26.3433L31.3688 28.096H33.296V25.096ZM30.352 21.64L28.6488 24.1096L28.6972 24.143L28.7468 24.1745L30.352 21.64ZM20.368 23.048L18.009 21.1945L17.9952 21.2121L17.9817 21.2299L20.368 23.048ZM20.368 37.512L17.9817 39.3301L17.9952 39.3479L18.009 39.3655L20.368 37.512ZM30.352 38.984L31.9961 41.4934L32.0061 41.4868L32.0161 41.4802L30.352 38.984ZM33.296 35.464V32.464H31.3688L30.5676 34.2167L33.296 35.464ZM48.272 35.464L51.2253 35.9914L51.8552 32.464H48.272V35.464ZM44.368 44.872L41.9451 43.1029L41.9359 43.1156L41.9268 43.1283L44.368 44.872ZM36.816 51.144L38.097 53.8567L38.105 53.853L38.113 53.8491L36.816 51.144ZM14.416 50.44L12.9064 53.0325L12.9187 53.0397L12.9311 53.0468L14.416 50.44ZM6.608 42.248L3.93787 43.6156L3.94444 43.6285L3.95114 43.6412L6.608 42.248ZM6.92 30.28C6.92 26.2087 7.7315 22.6992 9.27813 19.6796L3.93787 16.9444C1.9005 20.9221 0.92 25.3913 0.92 30.28H6.92ZM9.26486 19.7052C10.8382 16.7049 13.0385 14.4212 15.9009 12.7908L12.9311 7.57724C9.05214 9.7868 6.04715 12.9217 3.95114 16.9188L9.26486 19.7052ZM15.9256 12.7765C18.765 11.1232 22.1938 10.24 26.32 10.24V4.24C21.3156 4.24 16.8083 5.31948 12.9064 7.59147L15.9256 12.7765ZM26.32 10.24C29.8588 10.24 32.898 10.9111 35.5044 12.1781L38.1276 6.7819C34.59 5.06222 30.6319 4.24 26.32 4.24V10.24ZM35.5494 12.1995C38.2145 13.4408 40.3199 15.1821 41.9268 17.4317L46.8092 13.9443C44.5761 10.8179 41.6468 8.42053 38.0826 6.7605L35.5494 12.1995ZM41.9451 17.4571C43.6144 19.7433 44.7512 22.4454 45.3187 25.6234L51.2253 24.5686C50.5128 20.5786 49.0469 17.0087 46.7909 13.9189L41.9451 17.4571ZM48.272 22.096H33.296V28.096H48.272V22.096ZM36.0244 23.8487C35.1211 21.8727 33.7696 20.2534 31.9572 19.1055L28.7468 24.1745C29.4944 24.6479 30.1056 25.3326 30.5676 26.3433L36.0244 23.8487ZM32.0552 19.1704C30.2772 17.9441 28.2434 17.36 26.064 17.36V23.36C27.1273 23.36 27.9522 23.6292 28.6488 24.1096L32.0552 19.1704ZM26.064 17.36C22.8058 17.36 20.017 18.639 18.009 21.1945L22.727 24.9015C23.535 23.873 24.5436 23.36 26.064 23.36V17.36ZM17.9817 21.2299C16.1008 23.6986 15.32 26.8184 15.32 30.28H21.32C21.32 27.683 21.9045 25.9814 22.7543 24.8661L17.9817 21.2299ZM15.32 30.28C15.32 33.7416 16.1008 36.8614 17.9817 39.3301L22.7543 35.6939C21.9045 34.5786 21.32 32.877 21.32 30.28H15.32ZM18.009 39.3655C20.017 41.921 22.8058 43.2 26.064 43.2V37.2C24.5436 37.2 23.535 36.687 22.727 35.6585L18.009 39.3655ZM26.064 43.2C28.2111 43.2 30.2235 42.6547 31.9961 41.4934L28.7079 36.4746C28.0058 36.9346 27.1596 37.2 26.064 37.2V43.2ZM32.0161 41.4802C33.7916 40.2965 35.1262 38.6761 36.0244 36.7113L30.5676 34.2167C30.1005 35.2385 29.4724 35.9648 28.6879 36.4878L32.0161 41.4802ZM33.296 38.464H48.272V32.464H33.296V38.464ZM45.3187 34.9366C44.7512 38.1146 43.6144 40.8167 41.9451 43.1029L46.7909 46.6411C49.0469 43.5513 50.5128 39.9814 51.2253 35.9914L45.3187 34.9366ZM41.9268 43.1283C40.3146 45.3853 38.1989 47.154 35.519 48.4389L38.113 53.8491C41.6624 52.1474 44.5814 49.7347 46.8092 46.6157L41.9268 43.1283ZM35.535 48.4313C32.9213 49.6655 29.871 50.32 26.32 50.32V56.32C30.6196 56.32 34.5667 55.5238 38.097 53.8567L35.535 48.4313ZM26.32 50.32C22.1827 50.32 18.7449 49.4532 15.9009 47.8332L12.9311 53.0468C16.8285 55.2668 21.3266 56.32 26.32 56.32V50.32ZM15.9256 47.8475C13.0491 46.1726 10.8411 43.8605 9.26486 40.8548L3.95114 43.6412C6.04428 47.6328 9.04158 50.7821 12.9064 53.0325L15.9256 47.8475ZM9.27813 40.8804C7.7315 37.8608 6.92 34.3513 6.92 30.28H0.92C0.92 35.1687 1.9005 39.6379 3.93787 43.6156L9.27813 40.8804ZM95.3075 7.688H98.3075V4.688H95.3075V7.688ZM95.3075 53V56H98.3075V53H95.3075ZM81.0995 53H78.0995V56H81.0995V53ZM81.0995 35.336H84.0995V32.336H81.0995V35.336ZM67.5955 35.336V32.336H64.5955V35.336H67.5955ZM67.5955 53V56H70.5955V53H67.5955ZM53.3875 53H50.3875V56H53.3875V53ZM53.3875 7.688V4.688H50.3875V7.688H53.3875ZM67.5955 7.688H70.5955V4.688H67.5955V7.688ZM67.5955 24.008H64.5955V27.008H67.5955V24.008ZM81.0995 24.008V27.008H84.0995V24.008H81.0995ZM81.0995 7.688V4.688H78.0995V7.688H81.0995ZM92.3075 7.688V53H98.3075V7.688H92.3075ZM95.3075 50H81.0995V56H95.3075V50ZM84.0995 53V35.336H78.0995V53H84.0995ZM81.0995 32.336H67.5955V38.336H81.0995V32.336ZM64.5955 35.336V53H70.5955V35.336H64.5955ZM67.5955 50H53.3875V56H67.5955V50ZM56.3875 53V7.688H50.3875V53H56.3875ZM53.3875 10.688H67.5955V4.688H53.3875V10.688ZM64.5955 7.688V24.008H70.5955V7.688H64.5955ZM67.5955 27.008H81.0995V21.008H67.5955V27.008ZM84.0995 24.008V7.688H78.0995V24.008H84.0995ZM81.0995 10.688H95.3075V4.688H81.0995V10.688ZM115.908 7.688H118.908V4.688H115.908V7.688ZM115.908 53V56H118.908V53H115.908ZM101.7 53H98.7V56H101.7V53ZM101.7 7.688V4.688H98.7V7.688H101.7ZM112.908 7.688V53H118.908V7.688H112.908ZM115.908 50H101.7V56H115.908V50ZM104.7 53V7.688H98.7V53H104.7ZM101.7 10.688H115.908V4.688H101.7V10.688ZM165.781 53V56H168.781V53H165.781ZM151.573 53L149.069 54.6527L149.959 56H151.573V53ZM136.533 30.216L139.037 28.5633L133.533 20.2258V30.216H136.533ZM136.533 53V56H139.533V53H136.533ZM122.325 53H119.325V56H122.325V53ZM122.325 7.688V4.688H119.325V7.688H122.325ZM136.533 7.688L139.049 6.0545L138.162 4.688H136.533V7.688ZM151.573 30.856L149.057 32.4895L154.573 40.9869V30.856H151.573ZM151.573 7.688V4.688H148.573V7.688H151.573ZM165.781 7.688H168.781V4.688H165.781V7.688ZM165.781 50H151.573V56H165.781V50ZM154.077 51.3473L139.037 28.5633L134.029 31.8687L149.069 54.6527L154.077 51.3473ZM133.533 30.216V53H139.533V30.216H133.533ZM136.533 50H122.325V56H136.533V50ZM125.325 53V7.688H119.325V53H125.325ZM122.325 10.688H136.533V4.688H122.325V10.688ZM134.017 9.3215L149.057 32.4895L154.089 29.2225L139.049 6.0545L134.017 9.3215ZM154.573 30.856V7.688H148.573V30.856H154.573ZM151.573 10.688H165.781V4.688H151.573V10.688ZM162.781 7.688V53H168.781V7.688H162.781ZM201.256 46.152L204.107 45.2193L203.431 43.152H201.256V46.152ZM186.152 46.152V43.152H183.977L183.301 45.2193L186.152 46.152ZM183.912 53V56H186.087L186.763 53.9327L183.912 53ZM169 53L166.183 51.9693L164.708 56H169V53ZM185.576 7.688V4.688H183.479L182.759 6.65734L185.576 7.688ZM201.96 7.688L204.779 6.66085L204.06 4.688H201.96V7.688ZM218.472 53V56H222.758L221.291 51.9729L218.472 53ZM203.496 53L200.645 53.9327L201.321 56H203.496V53ZM197.8 35.464V38.464H201.929L200.653 34.5371L197.8 35.464ZM193.704 22.856L196.557 21.9291L193.704 13.1465L190.851 21.9291L193.704 22.856ZM189.608 35.464L186.755 34.5371L185.479 38.464H189.608V35.464ZM201.256 43.152H186.152V49.152H201.256V43.152ZM183.301 45.2193L181.061 52.0673L186.763 53.9327L189.003 47.0847L183.301 45.2193ZM183.912 50H169V56H183.912V50ZM171.817 54.0307L188.393 8.71866L182.759 6.65734L166.183 51.9693L171.817 54.0307ZM185.576 10.688H201.96V4.688H185.576V10.688ZM199.141 8.71515L215.653 54.0271L221.291 51.9729L204.779 6.66085L199.141 8.71515ZM218.472 50H203.496V56H218.472V50ZM206.347 52.0673L204.107 45.2193L198.405 47.0847L200.645 53.9327L206.347 52.0673ZM200.653 34.5371L196.557 21.9291L190.851 23.7829L194.947 36.3909L200.653 34.5371ZM190.851 21.9291L186.755 34.5371L192.461 36.3909L196.557 23.7829L190.851 21.9291ZM189.608 38.464H197.8V32.464H189.608V38.464ZM244.484 53L241.826 54.3916L242.668 56H244.484V53ZM235.972 36.744L238.63 35.3524L237.788 33.744H235.972V36.744ZM235.908 36.744V33.744H232.908V36.744H235.908ZM235.908 53V56H238.908V53H235.908ZM221.7 53H218.7V56H221.7V53ZM221.7 7.688V4.688H218.7V7.688H221.7ZM252.228 9.672L250.869 12.3465L250.886 12.3554L250.904 12.364L252.228 9.672ZM258.052 14.984L255.441 16.4618L255.458 16.4912L255.475 16.5202L258.052 14.984ZM257.476 30.6L255.05 28.8355L255.039 28.85L255.029 28.8647L257.476 30.6ZM250.244 35.656L249.318 32.8023L245.817 33.9379L247.636 37.1382L250.244 35.656ZM260.1 53V56H265.255L262.708 51.5178L260.1 53ZM235.908 27.272H232.908V30.272H235.908V27.272ZM244.612 26.376L246.588 28.6337L246.626 28.5998L246.664 28.5646L244.612 26.376ZM244.548 20.616L242.427 22.7373L242.459 22.7695L242.492 22.8006L244.548 20.616ZM235.908 19.592V16.592H232.908V19.592H235.908ZM247.142 51.6084L238.63 35.3524L233.314 38.1356L241.826 54.3916L247.142 51.6084ZM235.972 33.744H235.908V39.744H235.972V33.744ZM232.908 36.744V53H238.908V36.744H232.908ZM235.908 50H221.7V56H235.908V50ZM224.7 53V7.688H218.7V53H224.7ZM221.7 10.688H242.82V4.688H221.7V10.688ZM242.82 10.688C246.135 10.688 248.782 11.2857 250.869 12.3465L253.587 6.99754C250.469 5.41298 246.843 4.688 242.82 4.688V10.688ZM250.904 12.364C253.031 13.41 254.492 14.7854 255.441 16.4618L260.663 13.5062C259.052 10.6599 256.63 8.49398 253.552 6.97995L250.904 12.364ZM255.475 16.5202C256.496 18.2329 257.036 20.2105 257.036 22.536H263.036C263.036 19.2295 262.253 16.1725 260.629 13.4478L255.475 16.5202ZM257.036 22.536C257.036 24.9611 256.366 27.0251 255.05 28.8355L259.902 32.3645C261.999 29.4815 263.036 26.1696 263.036 22.536H257.036ZM255.029 28.8647C253.794 30.606 251.96 31.9457 249.318 32.8023L251.17 38.5097C254.843 37.3183 257.83 35.2873 259.923 32.3353L255.029 28.8647ZM247.636 37.1382L257.492 54.4822L262.708 51.5178L252.852 34.1738L247.636 37.1382ZM260.1 50H244.484V56H260.1V50ZM235.908 30.272H241.54V24.272H235.908V30.272ZM241.54 30.272C243.277 30.272 245.139 29.9008 246.588 28.6337L242.636 24.1183C242.719 24.0459 242.534 24.272 241.54 24.272V30.272ZM246.664 28.5646C248.167 27.1557 248.636 25.2336 248.636 23.432H242.636C242.636 23.8451 242.582 24.0737 242.547 24.1744C242.517 24.2582 242.51 24.2346 242.56 24.1874L246.664 28.5646ZM248.636 23.432C248.636 21.5884 248.05 19.7926 246.604 18.4314L242.492 22.8006C242.524 22.831 242.544 22.8581 242.566 22.9132C242.591 22.9797 242.636 23.1367 242.636 23.432H248.636ZM246.669 18.4947C245.242 17.0672 243.357 16.592 241.54 16.592V22.592C241.951 22.592 242.194 22.6459 242.317 22.688C242.427 22.7252 242.441 22.7513 242.427 22.7373L246.669 18.4947ZM241.54 16.592H235.908V22.592H241.54V16.592ZM232.908 19.592V27.272H238.908V19.592H232.908ZM265.663 51.528L263.674 53.7738L265.663 51.528ZM265.663 41.48L267.652 43.7258L267.67 43.7101L267.687 43.6941L265.663 41.48ZM277.503 41.48L275.479 43.6941L275.496 43.7101L275.514 43.7258L277.503 41.48ZM277.503 51.528L275.514 49.2822L277.503 51.528ZM271.615 50.512C269.69 50.512 268.474 50.0098 267.652 49.2822L263.674 53.7738C265.839 55.6915 268.591 56.512 271.615 56.512V50.512ZM267.652 49.2822C266.806 48.5324 266.423 47.6877 266.423 46.536H260.423C260.423 49.3949 261.534 51.8783 263.674 53.7738L267.652 49.2822ZM266.423 46.536C266.423 45.3207 266.821 44.4619 267.652 43.7258L263.674 39.2342C261.518 41.1434 260.423 43.6553 260.423 46.536H266.423ZM267.687 43.6941C268.511 42.9413 269.714 42.432 271.615 42.432V36.432C268.566 36.432 265.802 37.288 263.639 39.2659L267.687 43.6941ZM271.615 42.432C273.457 42.432 274.646 42.9326 275.479 43.6941L279.527 39.2659C277.374 37.2967 274.637 36.432 271.615 36.432V42.432ZM275.514 43.7258C276.345 44.4619 276.743 45.3207 276.743 46.536H282.743C282.743 43.6553 281.648 41.1434 279.492 39.2342L275.514 43.7258ZM276.743 46.536C276.743 47.6877 276.361 48.5324 275.514 49.2822L279.492 53.7738C281.632 51.8783 282.743 49.3949 282.743 46.536H276.743ZM275.514 49.2822C274.683 50.0181 273.482 50.512 271.615 50.512V56.512C274.612 56.512 277.336 55.6833 279.492 53.7738L275.514 49.2822ZM299.22 19.016V16.016H296.22V19.016H299.22ZM299.22 24.584H296.22V27.584H299.22V24.584ZM313.301 24.584H316.301V21.584H313.301V24.584ZM313.301 35.272V38.272H316.301V35.272H313.301ZM299.22 35.272V32.272H296.22V35.272H299.22ZM299.22 41.672H296.22V44.672H299.22V41.672ZM315.22 41.672H318.22V38.672H315.22V41.672ZM315.22 53V56H318.22V53H315.22ZM285.013 53H282.013V56H285.013V53ZM285.013 7.688V4.688H282.013V7.688H285.013ZM315.22 7.688H318.22V4.688H315.22V7.688ZM315.22 19.016V22.016H318.22V19.016H315.22ZM296.22 19.016V24.584H302.22V19.016H296.22ZM299.22 27.584H313.301V21.584H299.22V27.584ZM310.301 24.584V35.272H316.301V24.584H310.301ZM313.301 32.272H299.22V38.272H313.301V32.272ZM296.22 35.272V41.672H302.22V35.272H296.22ZM299.22 44.672H315.22V38.672H299.22V44.672ZM312.22 41.672V53H318.22V41.672H312.22ZM315.22 50H285.013V56H315.22V50ZM288.013 53V7.688H282.013V53H288.013ZM285.013 10.688H315.22V4.688H285.013V10.688ZM312.22 7.688V19.016H318.22V7.688H312.22ZM315.22 16.016H299.22V22.016H315.22V16.016ZM351.871 10.568L350.441 13.2053L350.448 13.2089L350.454 13.2124L351.871 10.568ZM360.127 18.568L362.742 17.0972L360.127 18.568ZM360.127 41.864L362.749 43.3209L360.127 41.864ZM351.871 50.056L353.325 52.68L353.336 52.674L351.871 50.056ZM320.575 53H317.575V56H320.575V53ZM320.575 7.688V4.688H317.575V7.688H320.575ZM345.791 37.704L347.836 39.8988L345.791 37.704ZM345.791 22.728L347.836 20.5332V20.5332L345.791 22.728ZM334.783 20.104V17.104H331.783V20.104H334.783ZM334.783 40.328H331.783V43.328H334.783V40.328ZM339.455 10.688C343.78 10.688 347.41 11.562 350.441 13.2053L353.301 7.93068C349.249 5.73401 344.602 4.688 339.455 4.688V10.688ZM350.454 13.2124C353.556 14.8739 355.883 17.1422 357.512 20.0388L362.742 17.0972C360.531 13.1671 357.354 10.1021 353.288 7.92356L350.454 13.2124ZM357.512 20.0388C359.152 22.9546 360.007 26.3206 360.007 30.216H366.007C366.007 25.4074 364.942 21.008 362.742 17.0972L357.512 20.0388ZM360.007 30.216C360.007 34.0626 359.155 37.4362 357.505 40.4071L362.749 43.3209C364.939 39.3798 366.007 34.9881 366.007 30.216H360.007ZM357.505 40.4071C355.866 43.3566 353.524 45.6936 350.406 47.438L353.336 52.674C357.386 50.4078 360.548 47.2834 362.749 43.3209L357.505 40.4071ZM350.417 47.432C347.391 49.1092 343.769 50 339.455 50V56C344.613 56 349.269 54.9282 353.325 52.68L350.417 47.432ZM339.455 50H320.575V56H339.455V50ZM323.575 53V7.688H317.575V53H323.575ZM320.575 10.688H339.455V4.688H320.575V10.688ZM338.175 43.328C341.938 43.328 345.275 42.2854 347.836 39.8988L343.746 35.5092C342.552 36.6213 340.812 37.328 338.175 37.328V43.328ZM347.836 39.8988C350.475 37.4403 351.607 34.0574 351.607 30.216H345.607C345.607 32.8599 344.862 34.469 343.746 35.5092L347.836 39.8988ZM351.607 30.216C351.607 26.3746 350.475 22.9917 347.836 20.5332L343.746 24.9228C344.862 25.963 345.607 27.5721 345.607 30.216H351.607ZM347.836 20.5332C345.275 18.1466 341.938 17.104 338.175 17.104V23.104C340.812 23.104 342.552 23.8107 343.746 24.9228L347.836 20.5332ZM338.175 17.104H334.783V23.104H338.175V17.104ZM331.783 20.104V40.328H337.783V20.104H331.783ZM334.783 43.328H338.175V37.328H334.783V43.328ZM382.026 7.688H385.026V4.688H382.026V7.688ZM383.37 38.216L380.94 39.9755L380.974 40.0232L381.011 40.0695L383.37 38.216ZM392.393 38.216L394.712 40.1202L394.728 40.1003L394.744 40.0802L392.393 38.216ZM393.866 7.688V4.688H390.866V7.688H393.866ZM408.009 7.688H411.009V4.688H408.009V7.688ZM405.322 44.296L407.904 45.8234L407.908 45.8155L407.913 45.8076L405.322 44.296ZM397.961 51.144L399.288 53.8346L397.961 51.144ZM377.289 51.144L375.902 53.8038L375.91 53.8078L375.917 53.8119L377.289 51.144ZM370.378 44.296L367.748 45.7403L370.378 44.296ZM367.882 7.688V4.688H364.882V7.688H367.882ZM379.026 7.688V33.224H385.026V7.688H379.026ZM379.026 33.224C379.026 35.7184 379.559 38.0682 380.94 39.9755L385.799 36.4565C385.388 35.8891 385.026 34.9109 385.026 33.224H379.026ZM381.011 40.0695C382.701 42.2207 385.224 43.008 387.849 43.008V37.008C386.379 37.008 385.916 36.6007 385.728 36.3625L381.011 40.0695ZM387.849 43.008C390.483 43.008 392.988 42.2181 394.712 40.1202L390.075 36.3118C389.836 36.6032 389.312 37.008 387.849 37.008V43.008ZM394.744 40.0802C396.265 38.1628 396.866 35.7718 396.866 33.224H390.866C390.866 34.8575 390.485 35.7946 390.043 36.3518L394.744 40.0802ZM396.866 33.224V7.688H390.866V33.224H396.866ZM393.866 10.688H408.009V4.688H393.866V10.688ZM405.009 7.688V33.224H411.009V7.688H405.009ZM405.009 33.224C405.009 37.1145 404.203 40.2593 402.73 42.7844L407.913 45.8076C410.024 42.1887 411.009 37.9522 411.009 33.224H405.009ZM402.739 42.7686C401.24 45.3037 399.219 47.1787 396.635 48.4534L399.288 53.8346C402.933 52.0373 405.819 49.3469 407.904 45.8234L402.739 42.7686ZM396.635 48.4534C393.975 49.7651 390.959 50.448 387.53 50.448V56.448C391.78 56.448 395.719 55.5949 399.288 53.8346L396.635 48.4534ZM387.53 50.448C384.098 50.448 381.167 49.7644 378.662 48.4761L375.917 53.8119C379.386 55.5956 383.281 56.448 387.53 56.448V50.448ZM378.677 48.4842C376.28 47.2336 374.398 45.3846 373.007 42.8517L367.748 45.7403C369.685 49.266 372.411 51.9824 375.902 53.8038L378.677 48.4842ZM373.007 42.8517C371.641 40.3653 370.882 37.1995 370.882 33.224H364.882C364.882 37.9525 365.786 42.168 367.748 45.7403L373.007 42.8517ZM370.882 33.224V7.688H364.882V33.224H370.882ZM367.882 10.688H382.026V4.688H367.882V10.688ZM450.612 7.112L448.689 9.41384L448.707 9.42934L448.726 9.44453L450.612 7.112ZM451.125 26.568L449.118 24.3381L449.108 24.3465L449.099 24.355L451.125 26.568ZM441.204 30.152L441.142 27.1526L438.443 27.2089L438.215 29.8994L441.204 30.152ZM440.82 34.696V37.696H443.578L443.81 34.9486L440.82 34.696ZM428.276 34.696L425.278 34.7809L425.36 37.696H428.276V34.696ZM427.892 21.128V18.128H424.806L424.894 21.2129L427.892 21.128ZM439.029 20.296L437.899 17.5166L437.884 17.5229L437.868 17.5294L439.029 20.296ZM440.436 15.752L438.115 17.6517L438.209 17.7675L438.315 17.8733L440.436 15.752ZM436.917 15.88L434.539 14.0509L434.527 14.0654L434.517 14.08L436.917 15.88ZM436.341 17.928V20.928H439.341V17.928H436.341ZM422.965 17.928L419.968 18.073L420.106 20.928H422.965V17.928ZM424.5 10.696L421.871 9.25222L421.86 9.2722L421.849 9.29234L424.5 10.696ZM430.004 5.512L431.383 8.17665L431.401 8.16734L431.419 8.15779L430.004 5.512ZM428.789 51.528L430.778 49.2822L428.789 51.528ZM428.789 41.48L430.778 43.7258L430.795 43.7101L430.813 43.6941L428.789 41.48ZM440.629 41.48L438.604 43.6941L438.622 43.7101L438.639 43.7258L440.629 41.48ZM440.629 51.528L438.639 49.2822L440.629 51.528ZM439.22 6.528C443.448 6.528 446.502 7.58663 448.689 9.41384L452.536 4.81016C449.005 1.8587 444.465 0.527996 439.22 0.527996V6.528ZM448.726 9.44453C450.766 11.0948 451.965 13.5974 451.965 17.48H457.965C457.965 12.232 456.261 7.82255 452.499 4.77946L448.726 9.44453ZM451.965 17.48C451.965 20.4701 450.984 22.6581 449.118 24.3381L453.131 28.7979C456.385 25.8699 457.965 21.9992 457.965 17.48H451.965ZM449.099 24.355C447.222 26.0728 444.663 27.0793 441.142 27.1526L441.267 33.1513C445.938 33.054 449.992 31.6712 453.15 28.781L449.099 24.355ZM438.215 29.8994L437.831 34.4434L443.81 34.9486L444.194 30.4046L438.215 29.8994ZM440.82 31.696H428.276V37.696H440.82V31.696ZM431.275 34.6111L430.891 21.0431L424.894 21.2129L425.278 34.7809L431.275 34.6111ZM427.892 24.128H433.268V18.128H427.892V24.128ZM433.268 24.128C435.929 24.128 438.32 23.8463 440.189 23.0626L437.868 17.5294C437.092 17.855 435.643 18.128 433.268 18.128V24.128ZM440.158 23.0754C441.188 22.6567 442.198 22.0136 442.951 21.0261C443.73 20.0037 444.077 18.8151 444.077 17.608H438.077C438.077 17.6393 438.073 17.6158 438.091 17.5577C438.111 17.4965 438.143 17.4365 438.178 17.3899C438.248 17.2984 438.234 17.3806 437.899 17.5166L440.158 23.0754ZM444.077 17.608C444.077 16.2833 443.719 14.7919 442.558 13.6307L438.315 17.8733C438.252 17.8103 438.199 17.7421 438.158 17.6745C438.117 17.6075 438.093 17.5511 438.08 17.514C438.056 17.4438 438.077 17.4592 438.077 17.608H444.077ZM442.758 13.8523C441.728 12.5934 440.291 12.048 438.836 12.048V18.048C438.832 18.048 438.714 18.0464 438.54 17.9699C438.356 17.889 438.209 17.7675 438.115 17.6517L442.758 13.8523ZM438.836 12.048C437.279 12.048 435.659 12.5946 434.539 14.0509L439.294 17.7091C439.252 17.764 439.195 17.8246 439.122 17.8815C439.049 17.9385 438.975 17.9802 438.909 18.0087C438.779 18.0653 438.731 18.048 438.836 18.048V12.048ZM434.517 14.08C433.631 15.2603 433.341 16.6404 433.341 17.928H439.341C439.341 17.7222 439.364 17.618 439.372 17.5882C439.379 17.565 439.37 17.6093 439.316 17.68L434.517 14.08ZM436.341 14.928H422.965V20.928H436.341V14.928ZM425.961 17.783C425.857 15.6333 426.271 13.7638 427.152 12.0997L421.849 9.29234C420.426 11.9802 419.816 14.932 419.968 18.073L425.961 17.783ZM427.13 12.1398C428.004 10.5485 429.37 9.21767 431.383 8.17665L428.626 2.84735C425.69 4.36633 423.386 6.49154 421.871 9.25222L427.13 12.1398ZM431.419 8.15779C433.345 7.12822 435.898 6.528 439.22 6.528V0.527996C435.205 0.527996 431.613 1.25043 428.59 2.8662L431.419 8.15779ZM434.741 50.512C432.815 50.512 431.599 50.0098 430.778 49.2822L426.799 53.7738C428.965 55.6915 431.716 56.512 434.741 56.512V50.512ZM430.778 49.2822C429.931 48.5324 429.548 47.6877 429.548 46.536H423.548C423.548 49.3949 424.659 51.8783 426.799 53.7738L430.778 49.2822ZM429.548 46.536C429.548 45.3207 429.946 44.4619 430.778 43.7258L426.799 39.2342C424.644 41.1434 423.548 43.6553 423.548 46.536H429.548ZM430.813 43.6941C431.636 42.9413 432.84 42.432 434.741 42.432V36.432C431.692 36.432 428.928 37.288 426.764 39.2659L430.813 43.6941ZM434.741 42.432C436.583 42.432 437.771 42.9326 438.604 43.6941L442.653 39.2659C440.499 37.2967 437.762 36.432 434.741 36.432V42.432ZM438.639 43.7258C439.471 44.4619 439.868 45.3207 439.868 46.536H445.868C445.868 43.6553 444.773 41.1434 442.618 39.2342L438.639 43.7258ZM439.868 46.536C439.868 47.6877 439.486 48.5324 438.639 49.2822L442.618 53.7738C444.758 51.8783 445.868 49.3949 445.868 46.536H439.868ZM438.639 49.2822C437.809 50.0181 436.608 50.512 434.741 50.512V56.512C437.737 56.512 440.462 55.6833 442.618 53.7738L438.639 49.2822Z" fill="#0E4749"/>
</svg>
