<svg width="24" height="24" viewBox="0 0 24 24" fill="none" xmlns="http://www.w3.org/2000/svg">
<path fill-rule="evenodd" clip-rule="evenodd" d="M3.40045 1.46996C3.64645 1.22393 3.94196 1.03302 4.26736 0.9099C4.59276 0.786778 4.94063 0.734255 5.28787 0.755816C5.63512 0.777377 5.97382 0.872529 6.28149 1.03496C6.58916 1.19739 6.85878 1.42339 7.07245 1.69796L9.59395 4.94096C10.0575 5.53496 10.221 6.31046 10.038 7.04096L9.26845 10.1205C9.22844 10.2803 9.23048 10.4477 9.27437 10.6065C9.31827 10.7652 9.40253 10.9099 9.51896 11.0265L12.975 14.481C13.0915 14.5974 13.2362 14.6816 13.395 14.7255C13.5537 14.7694 13.7212 14.7715 13.881 14.7315L16.959 13.962C17.32 13.8718 17.6968 13.8649 18.0609 13.9418C18.4249 14.0188 18.7668 14.1775 19.0605 14.406L22.3035 16.9275C23.469 17.8335 23.577 19.557 22.533 20.5995L21.078 22.0545C20.0385 23.094 18.483 23.5515 17.0325 23.0415C13.3221 21.7355 9.95329 19.611 7.17595 16.8255C4.38991 14.0483 2.26487 10.6795 0.958454 6.96896C0.448454 5.51846 0.905954 3.96296 1.94545 2.92196L3.40045 1.46846V1.46996Z" fill="#D1A300"/>
</svg>
